<?xml version="1.0" encoding="utf-8"?>
<!DOCTYPE svg PUBLIC "-//W3C//DTD SVG 20010904//EN" "http://www.w3.org/TR/2001/REC-SVG-20010904/DTD/svg10.dtd">
<svg version="1.0" xmlns="http://www.w3.org/2000/svg" width="1224px" height="1224px" viewBox="0 0 1224 1224" preserveAspectRatio="xMidYMid meet">
 <g fill="#020202">
  <path d="M263 636.5 c0 -3.3 0.2 -3.5 3.5 -3.5 3.3 0 3.5 -0.2 3.5 -3.5 0 -3.3 0.2 -3.5 3.5 -3.5 3.3 0 3.5 0.2 3.5 3.5 0 3.3 -0.2 3.5 -3.5 3.5 -3.3 0 -3.5 0.2 -3.5 3.5 0 3.3 -0.2 3.5 -3.5 3.5 -3.3 0 -3.5 -0.2 -3.5 -3.5z"/>
  <path d="M428 636.5 c0 -3.3 -0.2 -3.5 -3.5 -3.5 -3.3 0 -3.5 -0.2 -3.5 -3.5 0 -3.3 0.2 -3.5 3.5 -3.5 3.3 0 3.5 0.2 3.5 3.5 0 3.3 0.2 3.5 3.5 3.5 3.3 0 3.5 0.2 3.5 3.5 0 3.3 -0.2 3.5 -3.5 3.5 -3.3 0 -3.5 -0.2 -3.5 -3.5z"/>
  <path d="M337 582 c0 -3.9 0.1 -4 3.5 -4 3.4 0 3.5 0.1 3.5 4 0 3.9 -0.1 4 -3.5 4 -3.4 0 -3.5 -0.1 -3.5 -4z"/>
  <path d="M612 499.5 c0 -3.3 -0.2 -3.5 -3.5 -3.5 -3.3 0 -3.5 -0.2 -3.5 -3.5 0 -3.3 0.2 -3.5 3.5 -3.5 3.3 0 3.5 0.2 3.5 3.5 0 3.3 0.2 3.5 3.5 3.5 3.3 0 3.5 0.2 3.5 3.5 0 3.3 -0.2 3.5 -3.5 3.5 -3.3 0 -3.5 -0.2 -3.5 -3.5z"/>
  <path d="M851.2 291.9 c-13.3 -2 -29.7 -10 -39.2 -19.1 -9.7 -9.1 -17.3 -21.9 -21.2 -35.5 -3.2 -11.2 -3.2 -33.4 0 -44.6 3.9 -13.7 10.8 -25.3 20.8 -34.8 6.5 -6.2 13.4 -11 14.6 -10.2 1.8 1 7.8 2.1 7.3 1.3 -0.6 -1 8.6 -4.6 16.9 -6.5 9 -2.1 23.7 -1.9 33.2 0.5 13.7 3.5 32.5 13.9 29.3 16.2 -1.1 0.7 -0.9 0.8 0.5 0.4 1.4 -0.5 3.1 0.6 6.4 4.1 5.8 6.2 12.4 16.3 11.7 18.1 -0.2 0.7 -0.1 1.1 0.4 0.8 1.2 -0.8 3.5 5 2.5 6.5 -0.4 0.8 -0.3 1 0.4 0.5 1.9 -1.2 5.1 13.1 5.2 23 0 5.6 0.4 7.4 1.8 8.7 1.6 1.5 1.8 2.5 1 8 -1 7.8 -3.2 14.4 -7.3 22.7 -9.5 18.9 -27 32.9 -48.2 38.5 -7.2 1.9 -27.6 2.7 -36.1 1.4z m34.8 -10.6 c3.2 -0.9 4.8 -1.8 3.8 -2 -1 -0.3 -1.8 -0.9 -1.8 -1.4 0 -0.5 -0.7 -0.9 -1.5 -0.9 -0.8 0 -1.5 -0.4 -1.5 -1 0 -0.5 -0.6 -1 -1.2 -1 -0.7 0 -3.1 -1.7 -5.4 -3.8 -2.2 -2 -5.2 -4.6 -6.5 -5.8 -2.6 -2.2 -9 -9.3 -12.6 -13.9 -3.3 -4.2 -11.9 -22.2 -14.1 -29.5 -0.9 -3 -1.9 -8.7 -3.8 -21.7 -0.5 -3.3 -1.8 -4.2 -13.9 -9.3 -3.5 -1.5 -9.3 -2.1 -10 -1.1 -0.3 0.6 -1.1 4.8 -1.7 9.5 -0.9 7.1 -0.8 10.3 0.6 18.4 1.6 10 4.2 18.2 5.8 18.2 0.4 0 0.8 0.8 0.8 1.7 0 2.6 8.1 14 15.2 21.5 5.9 6.2 9.6 9.5 16.2 14.3 1.5 1.1 3.7 2.8 4.8 3.8 1.2 0.9 2.7 1.7 3.4 1.7 0.7 0 1.4 0.3 1.6 0.8 0.2 0.4 1.7 1.5 3.3 2.4 3.5 2 10.1 1.7 18.5 -0.9z m-38.1 -0.6 c-8.2 -6.1 -17.1 -14.3 -21.9 -20.3 -2.5 -3.1 -10.5 -15.7 -11.7 -18.4 -0.6 -1.4 -1.8 -4.1 -2.7 -6.1 -3.1 -7.1 -4.9 -21.6 -4.2 -34.1 0.4 -7.9 0.2 -11.8 -0.5 -11.8 -0.5 0 -2.3 0.7 -3.9 1.5 -3.1 1.6 -3.7 3.1 -6 15 -2.6 12.7 2.2 33.5 10.4 44.9 4.4 6.3 5.3 7.2 10.6 12.6 7.7 7.8 17.9 14 28 17.2 1.4 0.5 2.8 0.1 1.9 -0.5z m60.4 -11.7 c3.7 -2.8 8.6 -7.6 10.9 -10.8 2.4 -3.1 4.9 -6.3 5.6 -7.1 1.2 -1.2 2.3 -3.5 6.8 -13.9 2.2 -5.1 1.7 -5.9 -1.2 -1.6 -3.6 5.3 -12.1 13.5 -16.9 16.4 -2.2 1.3 -4.2 2.7 -4.5 3.1 -0.3 0.5 -4.4 2.2 -9 3.9 -4.7 1.7 -9.3 3.5 -10.2 4.1 -1 0.5 -2.5 0.9 -3.4 0.9 -1.3 0 -1 0.5 0.9 2 1.4 1.1 3 2 3.5 2 0.6 0 1.2 0.3 1.4 0.8 0.6 1.4 6.3 5.1 7.9 5.2 0.9 0 4.6 -2.3 8.2 -5z m-25.3 -13.5 c1.9 -0.3 4.4 -1 5.5 -1.5 1.1 -0.4 4 -1.6 6.5 -2.5 2.5 -0.9 5.2 -2.2 6 -2.9 0.8 -0.7 3.6 -2.4 6.1 -3.9 5.3 -3 16.7 -14.9 18.1 -18.9 0.6 -1.6 1.3 -2.8 1.8 -2.8 0.9 0 4.6 -8.4 6.5 -14.6 1.6 -5.2 0.2 -12.1 -4.1 -21.3 -2.8 -5.8 -4.4 -7.6 -4.4 -4.8 0 0.7 -0.9 2.2 -1.9 3.4 -1 1.1 -2.6 3.4 -3.5 5.1 -0.9 1.8 -2 3.2 -2.4 3.2 -0.4 0 -1.3 1.4 -2.1 3.1 -1.3 2.9 -25 27.9 -26.5 27.9 -0.4 0 -1.7 0.9 -2.9 2.1 -1.2 1.1 -5.3 4.1 -9.2 6.6 -3.8 2.6 -7.2 5 -7.5 5.4 -0.3 0.4 -1.6 1.2 -2.8 1.6 -2.2 0.8 -2.1 0.9 1.6 5.4 2 2.5 4.8 6 6.1 7.8 1.5 1.9 3.1 3 4 2.7 0.9 -0.3 3.2 -0.7 5.1 -1.1z m-21.9 -23.5 c0.7 0 10 -5.9 14.4 -9.2 7.2 -5.4 24.6 -22.2 30 -29.1 1.7 -2.1 3.7 -4.6 4.5 -5.5 2 -2.3 7 -10 7 -10.7 0 -0.4 0.7 -1.3 1.5 -2.2 1 -0.9 1.3 -2.3 0.9 -3.5 -0.6 -2.1 -6 -7.2 -12.2 -11.9 l-3.6 -2.7 -8.6 8.9 c-4.7 4.9 -9.1 8.9 -9.8 8.9 -0.6 0 -1.2 0.6 -1.2 1.3 0 0.6 -1.7 2.3 -3.8 3.7 -2 1.4 -3.9 2.8 -4.2 3.1 -0.8 1.1 -7.2 4.7 -11.2 6.5 -2.1 0.9 -3.8 2 -3.8 2.5 0 0.5 -0.9 0.9 -2 0.9 -1.1 0 -2 0.4 -2 0.8 0 0.4 -1.6 1.4 -3.5 2.1 -2.3 0.8 -3.5 1.9 -3.5 3.1 0 3.8 4 22.1 5.3 24.3 0.8 1.2 2 4.2 2.7 6.6 0.8 2.4 1.6 3.9 1.8 3.2 0.2 -0.6 0.8 -1.1 1.3 -1.1z m77.5 -18.7 c-1.1 -1.1 -1.7 0.4 -0.9 2.3 0.7 1.8 0.8 1.8 1.1 0.1 0.2 -1 0.1 -2.1 -0.2 -2.4z m-25.8 -22.3 c1.3 -1.6 1.9 -3 1.4 -3 -0.4 0 -1.6 1.4 -2.5 3 -1 1.7 -1.6 3 -1.4 3 0.2 0 1.3 -1.3 2.5 -3z m-58.5 -6.2 c4.5 -2.3 10.8 -6 14 -8.1 5.5 -3.8 5.7 -4 4.1 -5.8 -0.9 -1.1 -2.1 -1.9 -2.7 -1.9 -0.5 0 -2.1 -0.8 -3.5 -1.8 -3 -2.1 -12.4 -4.8 -19.2 -5.7 -5 -0.6 -20.3 1.7 -26.6 4 -4.5 1.7 -7.8 4.9 -11.7 11.1 l-2.6 4.2 11.7 0.4 c10.7 0.5 20.7 2.6 22.2 4.8 0.6 0.9 4.3 2.9 5.3 3 0.5 0 4.5 -1.9 9 -4.2z m25.3 -13.7 c-0.4 -0.5 0 -1.1 0.6 -1.4 0.7 -0.2 0.9 -0.8 0.5 -1.3 -0.4 -0.5 -1.2 -0.2 -1.6 0.5 -0.5 0.8 -1.5 1 -2.2 0.7 -0.8 -0.4 -0.5 0 0.5 0.8 2.2 1.8 3 2 2.2 0.7z m10.6 -7.5 c2.2 -2.3 2.2 -2.7 0.3 -2 -0.8 0.4 -1.5 1 -1.5 1.5 0 0.5 -0.5 0.9 -1.1 0.9 -1.7 0 0.1 -4.1 3.6 -8.4 l3.3 -4 -8.7 -2.8 c-15.5 -5.2 -27.7 -4.9 -43.1 1 l-7.3 2.9 10.7 0.6 c7.2 0.4 11.6 1.1 13.2 2.1 1.3 0.9 3.1 1.6 4.1 1.6 1 0 2.7 0.6 3.8 1.4 1.1 0.7 3.3 1.6 4.9 2 1.5 0.4 4.1 1.6 5.6 2.8 2.1 1.5 3.7 1.9 5.9 1.5 3.7 -0.8 3.8 -0.2 0.9 3.2 l-2.3 2.6 3 -2.5 c1.6 -1.4 3.8 -3.4 4.7 -4.4z m-21.2 -2.6 c-2.4 -1.5 -3.7 -1.1 -1.6 0.5 1.1 0.8 2.2 1.2 2.5 0.9 0.3 -0.3 -0.1 -0.9 -0.9 -1.4z"/>
 </g>
 <g fill="#4d4d4d">
  <path d="M106.6 689.3 c-0.3 -1 -1.2 -7.6 -2 -14.8 -8.9 -76 -1.9 -149.3 21 -219.9 68.4 -210.8 265 -353.8 486.4 -353.8 70.3 0 137.1 13.9 203.7 42.4 l14.3 6.1 -4.6 2.9 c-10.2 6.4 -20.4 18 -26.3 29.6 -5.3 10.5 -7.5 20.2 -7.5 33.2 0 13.2 2.2 22.7 7.8 33.8 17.4 34.5 58.2 49.9 94.6 35.5 7.2 -2.8 17.5 -9.4 23.3 -14.7 11.8 -11 22.7 -32.7 22.7 -45.3 0 -1.8 0.4 -3.3 0.8 -3.3 1.5 0 21.2 18 34.6 31.5 63 63.6 109.1 144.7 131.5 231.6 16.1 62.3 20.2 124.5 12.5 190.4 -0.8 7.2 -1.7 13.8 -2 14.8 -0.5 1.6 -5.2 1.7 -80.5 1.7 l-79.9 0 0 -163.5 c0 -159.8 0 -163.7 -1.9 -167.4 -2.2 -4.3 -7 -8.2 -12 -9.9 -4.8 -1.7 -119.4 -1.7 -124.2 0 -5 1.7 -9.8 5.6 -12 9.9 -1.9 3.7 -1.9 7.6 -1.9 167.4 l0 163.5 -9 0 -9 0 0 -66.9 c0 -48.3 -0.3 -67.7 -1.2 -70.2 -1.7 -5 -5.6 -9.8 -10 -12 -3.7 -1.9 -6 -1.9 -66.6 -1.7 l-62.9 0.3 -3.6 2.7 c-1.9 1.6 -4.6 4.3 -5.9 6 l-2.3 3.3 -0.3 69.3 -0.2 69.2 -9 0 -9 0 -0.2 -91.7 -0.3 -91.8 -2.4 -4 c-3.3 -5.6 -3.5 -5.9 -8.8 -8.6 l-4.7 -2.4 -67 0 -67.1 0 -4.2 2.2 c-2.4 1.3 -5.6 4.4 -7.5 7 l-3.3 4.8 -0.3 92.3 -0.2 92.2 -9 0 -8.9 0 -0.3 -23.2 c-0.3 -22.4 -0.4 -23.5 -2.7 -27.3 -3.3 -5.6 -3.5 -5.9 -8.8 -8.6 l-4.7 -2.4 -66.6 0 -66.6 0 -4.7 2.4 c-5.3 2.7 -5.5 3 -8.8 8.6 -2.3 3.8 -2.4 4.9 -2.7 27.3 l-0.3 23.2 -79.4 0 c-74.7 0 -79.4 -0.1 -79.9 -1.7z m237.4 -98.2 c0 -6.8 0 -6.8 -2.5 -6.3 -1.4 0.2 -2.4 1 -2.1 1.6 0.2 0.6 1.3 3.5 2.2 6.4 1 2.8 1.9 5.2 2.1 5.2 0.2 0 0.3 -3.1 0.3 -6.9z m366.6 -87.8 c-0.2 -0.3 -1.1 -0.3 -1.9 -0.1 -1.4 0.3 -1.4 0.7 0.1 3.8 l1.6 3.5 0.4 -3.3 c0.2 -1.9 0.1 -3.6 -0.2 -3.9z"/>
  <path d="M856.5 287.4 c-6.6 -1.3 -14.3 -3.1 -15 -3.4 -0.3 -0.1 -0.8 -0.3 -1.2 -0.5 -1.9 -0.5 -11.2 -5.4 -15.3 -8 -4.2 -2.7 -13.7 -11.6 -17 -16 -6.1 -8.2 -10.7 -17.3 -12.7 -25 -2.5 -10 -2.5 -27.7 0 -38.5 1.4 -6 3.9 -8.3 10.7 -9.5 1.7 -0.3 3.7 -0.7 4.3 -0.8 0.9 -0.1 1.1 2 0.9 7.3 -0.4 10.2 -1.8 12 -2.7 3.6 -0.5 -5.4 -1 -6.6 -2.2 -6.2 -0.8 0.3 -2.5 0.6 -3.8 0.6 -1.9 0 -2.4 0.7 -3 4.5 -0.3 2.5 -1.2 5.1 -1.8 5.7 -0.7 0.6 -1.1 2.6 -0.9 4.4 0.3 2.2 -0.2 3.9 -1.3 5 -1.3 1.4 -1.6 2.8 -1.1 6.2 0.3 2.5 0.6 5.5 0.6 6.8 0 1.5 0.6 2.4 1.5 2.4 0.9 0 1.5 0.9 1.5 2.2 0 2.7 5 16.2 6.2 16.6 0.4 0.2 1.1 2.2 1.5 4.4 0.4 2.8 1.2 4.2 2.4 4.5 1.2 0.3 1.9 1.4 1.9 2.9 0 1.7 0.6 2.4 2 2.4 1.4 0 2 0.7 2 2.1 0 2.4 5.7 7.9 8.3 7.9 2.1 0 4 1.6 5 4.3 0.4 1 1.7 1.7 3.2 1.7 1.5 0 2.5 0.6 2.5 1.5 0 1.9 2.5 3.1 7.9 3.8 2.5 0.3 4.8 1.2 5.3 2 0.5 0.9 1.6 1.3 2.8 1 2.7 -0.7 2.6 -2.3 -0.1 -2.3 -1.2 0 -3.2 -1.1 -4.5 -2.5 -1.3 -1.4 -2.6 -2.5 -3 -2.5 -1.3 0 -6.4 -6 -6.4 -7.5 0 -0.8 -0.7 -1.5 -1.5 -1.5 -1.8 0 -6.5 -4.3 -6.5 -6 0 -0.5 -0.4 -1 -1 -1 -0.5 0 -1 -0.7 -1 -1.5 0 -0.8 -0.9 -1.9 -2 -2.5 -1.1 -0.6 -2 -1.7 -2 -2.5 0 -0.8 -0.4 -1.5 -1 -1.5 -0.5 0 -1 -0.9 -1 -2 0 -1.1 -0.7 -2.3 -1.5 -2.6 -0.8 -0.4 -1.5 -1.2 -1.5 -2 0 -0.8 -0.4 -1.4 -1 -1.4 -0.5 0 -1 -1.3 -1 -3 0 -1.6 -0.4 -3 -0.8 -3 -1.3 0 -5.2 -14.3 -5.1 -18.7 0 -2.1 0.4 -4.7 0.9 -5.8 0.7 -1.8 0.9 -1.6 1.5 1.3 0.9 4 2.7 4.3 1.9 0.2 -0.6 -2.6 -0.4 -3 1.5 -3 1.8 0 2.1 0.6 2.1 3.8 0 4.8 4 16.8 8 23.8 1.6 3 3 6.1 3 6.9 0 0.9 0.8 1.9 1.8 2.2 2.2 0.9 3.2 2.3 3.2 5 0 1.6 0.8 2.5 2.4 2.9 1.7 0.4 2.7 1.5 3.1 3.6 0.4 1.6 0.4 3.2 0.1 3.6 -1.6 1.5 -19.2 -22 -18 -23.9 0.3 -0.5 0.1 -0.9 -0.5 -0.9 -0.5 0 -1.5 -1.6 -2.1 -3.5 -0.6 -1.9 -1.6 -3.5 -2.1 -3.5 -0.5 0 -0.6 0.7 0 1.8 0.5 0.9 1.5 3.1 2.2 4.7 1.3 3.1 9.2 15.5 11.9 18.9 3.3 4.1 12.7 13.3 17 16.6 2.5 1.9 5 3.9 5.7 4.5 3.5 2.9 7 5.2 10.1 6.5 4.8 2.1 1.3 3.7 -5.3 2.4z m-42.1 -59.8 c-0.3 -1.4 -1 -2.6 -1.5 -2.6 -0.6 0 -0.5 0.9 0.1 2 0.6 1.1 0.8 2 0.5 2 -0.4 0 -0.3 0.5 0 1.1 1.1 1.7 1.6 0.3 0.9 -2.5z m-0.4 -4.8 c0 -1.7 -1.8 -4.4 -2.4 -3.7 -0.8 0.7 0.5 4.9 1.5 4.9 0.5 0 0.9 -0.6 0.9 -1.2z"/>
  <path d="M869 287.1 c0 -0.6 1.3 -1.1 3 -1.1 5.1 0 13 -2.1 13 -3.5 0 -0.7 1.1 -1.6 2.5 -1.9 2.7 -0.7 3.4 -2.6 1 -2.6 -0.8 0 -1.5 -0.4 -1.5 -1 0 -0.5 -0.6 -1 -1.3 -1 -0.8 0 -1.9 -1.1 -2.6 -2.4 -0.8 -1.4 -2.9 -2.8 -5.2 -3.5 -3.2 -1 -3.9 -1.6 -3.9 -3.6 0 -2 -0.5 -2.5 -2.6 -2.5 -1.9 0 -2.8 -0.7 -3.5 -3 -0.6 -1.6 -1.7 -3 -2.5 -3 -0.8 0 -1.4 -1 -1.4 -2.5 0 -1.8 -0.7 -2.6 -2.5 -3.1 -1.5 -0.4 -2.5 -1.3 -2.5 -2.4 0 -0.9 -1.1 -2.9 -2.5 -4.4 -1.4 -1.5 -2.5 -3.1 -2.5 -3.7 0 -0.5 -0.4 -0.9 -0.8 -0.9 -0.8 0 -3.9 -7 -6.1 -13.9 -0.6 -1.9 -1.1 -5.3 -1.1 -7.7 0 -2.4 -0.6 -4.9 -1.5 -5.8 -1.1 -1 -1.5 -3.6 -1.5 -8.5 0 -5.4 -0.3 -7.1 -1.4 -7.1 -0.8 0 -2.4 -1.1 -3.7 -2.5 -1.3 -1.3 -3 -2.5 -3.7 -2.5 -2.5 0 -11.2 -3.2 -11.2 -4.1 0 -0.5 -1.3 -0.9 -2.9 -0.9 -2.9 0 -2.9 0 -3.6 7.5 -0.6 6.5 -1 7.5 -2.6 7.5 -1.8 0 -1.9 -0.5 -1.3 -5.7 0.4 -3.2 0.7 -6.5 0.8 -7.3 0.4 -3.5 1.8 -4.2 7.2 -3.8 3 0.3 5.4 0.1 5.4 -0.4 0 -0.4 -0.8 -0.9 -1.7 -1 -1 0 -2.2 -0.2 -2.8 -0.3 -0.5 -0.2 -1.8 -0.3 -2.7 -0.4 -1 0 -1.8 -0.8 -1.8 -1.6 0 -3.3 14.9 -0.7 25 4.5 3.5 1.8 3.5 1.8 9.2 -1.1 3.2 -1.6 6.2 -2.9 6.8 -2.9 0.6 0 2.3 -1.1 3.8 -2.5 1.5 -1.4 3.8 -2.5 5.3 -2.5 1.8 0 2.9 -0.8 3.7 -2.5 0.6 -1.4 1.8 -2.5 2.7 -2.5 0.8 0 1.5 -0.4 1.5 -1 0 -1.1 3.3 -1.4 4.3 -0.4 0.9 0.9 -0.4 3.5 -1.4 2.8 -0.5 -0.3 -0.9 -0.1 -0.9 0.5 0 1.5 -10.8 8.5 -21.3 13.6 l-9.7 4.8 -4.5 -1.7 c-2.5 -1 -4.5 -2.3 -4.5 -2.8 0 -0.6 -0.3 -0.8 -0.7 -0.5 -0.3 0.4 -1.2 0.2 -2 -0.4 -0.9 -0.8 -1.3 -0.8 -1.3 -0.1 0 0.6 2.5 2.2 5.5 3.6 5.8 2.8 5.4 2.1 6.9 12.6 0.3 1.9 0.8 4.9 1.1 6.5 0.3 1.7 0.7 4.4 1 6.2 0.9 5.1 2.7 5.3 2 0.2 -0.4 -2.4 -0.8 -4.7 -1.1 -5 -1.3 -2.2 -2.3 -17.9 -1.1 -17.8 0.4 0 1.9 -0.7 3.3 -1.5 1.3 -0.9 2.4 -1.4 2.4 -1.1 0 0.4 0.7 -0.1 1.6 -0.9 0.8 -0.9 2 -1.4 2.5 -1.1 0.5 0.4 0.9 0.2 0.9 -0.3 0 -0.6 1.7 -1.7 3.8 -2.6 4.6 -2 10 -5.2 11.8 -7.1 0.7 -0.7 2.7 -1.9 4.4 -2.7 1.6 -0.7 3 -1.9 3 -2.6 0 -0.7 0.5 -1 1.1 -0.6 0.6 0.3 1.5 0 2 -0.7 0.6 -1 0.9 -0.7 0.9 1.2 0 2.1 -0.6 2.8 -2.8 3.2 -1.6 0.3 -3.4 1.7 -4.2 3.1 -0.8 1.6 -2.2 2.6 -3.5 2.6 -1.4 0 -2.6 1 -3.3 2.5 -0.7 1.4 -2 2.5 -3.1 2.5 -1.1 0 -2.1 0.4 -2.3 0.9 -0.5 1.3 -10.4 6.1 -12.7 6.1 -4.2 0 -4.1 7 0.5 21.9 0.8 2.5 1.4 5.5 1.4 6.8 0 1.3 0.4 2.3 0.9 2.3 0.5 0 1.5 1.6 2.2 3.5 1.2 3.1 3.9 5 3.9 2.6 0 -0.5 1.4 -1.1 3 -1.4 1.8 -0.4 3 -1.3 3 -2.2 0 -0.9 0.9 -1.5 2.5 -1.5 1.8 0 2.5 -0.5 2.5 -2 0 -1.4 0.7 -2 2.4 -2 1.5 0 2.6 -0.7 2.9 -2 0.4 -1.5 1.4 -2 3.6 -2 2.6 0 3.1 -0.4 3.1 -2.4 0 -1.9 0.7 -2.6 3 -3.1 2.1 -0.5 3 -1.3 3 -2.6 0 -2.9 3.1 -5.9 6.1 -5.9 2.3 0 2.8 -0.5 3.3 -3.5 0.6 -2.9 1.1 -3.5 3.1 -3.5 2.1 0 2.5 -0.5 2.5 -3 0 -2 0.6 -3.3 1.8 -3.7 2.6 -1 4.2 -3 4.2 -5.2 0 -1.2 0.5 -2.1 1 -2.1 0.6 0 1 -0.7 1 -1.5 0 -0.8 0.5 -1.5 1 -1.5 0.6 0 1 -0.7 1 -1.5 0 -0.8 0.7 -1.5 1.5 -1.5 0.9 0 1.5 -0.9 1.5 -2.5 0 -1.4 0.5 -2.5 1 -2.5 0.6 0 1 -0.9 1 -2 0 -1.9 0.1 -1.9 2 -0.2 1.9 1.5 1.9 1.8 0.4 2.9 -0.9 0.6 -1.3 1.6 -0.9 2.2 0.3 0.6 0 1.1 -0.8 1.1 -1.6 0 -3 2.7 -2.2 4 0.3 0.4 -0.2 1.1 -1.1 1.4 -0.8 0.3 -1.2 1 -0.9 1.6 0.3 0.6 -0.1 1.3 -0.9 1.6 -0.9 0.3 -1.3 1 -1 1.5 0.3 0.5 -0.1 0.9 -0.8 0.9 -1.2 0 -4.8 4.8 -4.5 6 0.5 1.9 -22.7 25 -31.8 31.8 -4.7 3.4 -13.8 9.2 -14.5 9.2 -0.6 0 -1 0.8 -1 1.8 0 1.4 0.2 1.5 1 0.2 0.5 -0.8 1 -1 1 -0.5 0 0.6 0.3 0.6 0.8 -0.1 0.4 -0.6 3.9 -3.1 7.7 -5.7 3.9 -2.5 8 -5.5 9.2 -6.6 1.2 -1.2 2.5 -2.1 2.9 -2.1 0.4 0 6.4 -5.8 13.3 -12.8 14.4 -14.7 17.3 -17.9 15.1 -16.8 -0.9 0.4 -0.8 0.2 0.3 -0.7 0.9 -0.8 1.7 -1.9 1.7 -2.6 0 -0.6 0.5 -1.1 1.1 -1.1 0.5 0 0.7 -0.4 0.4 -1 -0.3 -0.5 0.1 -1 1 -1 0.9 0 1.4 -0.4 1.1 -0.9 -0.3 -0.4 0.3 -1.6 1.4 -2.6 1.1 -1 1.7 -2.2 1.4 -2.6 -0.3 -0.5 0.2 -1.6 1.1 -2.5 1.3 -1.4 2.1 -1.5 4.2 -0.5 1.4 0.6 2.3 1.5 1.9 1.8 -0.3 0.3 -0.1 1.2 0.5 2 0.9 1 0.4 1.3 -2.6 1.3 -4.1 0 -6.4 2 -6.5 5.7 0 1.3 -0.8 2.4 -2 2.8 -1.3 0.4 -2 1.5 -2 3.1 0 1.5 -0.6 2.4 -1.5 2.4 -0.9 0 -1.8 0.7 -2.1 1.5 -0.4 0.8 -1.5 1.5 -2.5 1.5 -1.5 0 -1.9 0.7 -1.9 3.5 0 1.9 -0.4 3.5 -1 3.5 -0.5 0 -1 0.7 -1 1.5 0 1 -1 1.5 -3 1.5 -1.8 0 -3 0.5 -3 1.3 0 1.4 -3.5 4.7 -5 4.7 -0.6 0 -1 1.1 -1 2.5 0 1.6 -0.6 2.5 -1.5 2.5 -0.8 0 -1.5 0.7 -1.5 1.5 0 0.8 -0.9 1.5 -2 1.5 -1.1 0 -2 0.5 -2 1.1 0 1.7 -2.7 3.9 -4.9 3.9 -1.2 0 -2.1 0.5 -2.1 1 0 0.6 -1.1 1 -2.5 1 -2 0 -2.5 0.5 -2.5 2.5 0 1.6 -0.6 2.5 -1.5 2.5 -0.8 0 -1.5 0.5 -1.5 1 0 0.6 -0.7 1 -1.5 1 -0.8 0 -1.5 0.4 -1.5 0.8 0 0.5 -1.1 1.4 -2.5 2 -3 1.4 -3.2 3.3 -0.5 5.2 1.1 0.8 2 2.3 2 3.3 0 1.8 2.2 4.7 3.5 4.7 0.3 0 1.5 0.9 2.7 2 1.2 1.1 2.7 2 3.4 2 0.6 0 1.4 0.7 1.8 1.5 0.4 1 -0.1 1.5 -1.7 1.6 -5.2 0.3 -4.9 0.5 -13.8 -10.8 -6.3 -8 -6.4 -8.1 -4.2 -10.5 1.8 -2.1 1.8 -2.1 -0.3 -1 -1.5 0.8 -2.4 0.8 -3.2 0 -0.7 -0.7 -1.2 -0.9 -1.2 -0.5 0 1 4.9 9.6 6.8 11.9 4 4.9 9.9 11.3 12.1 13.2 1.3 1.2 4.3 3.8 6.5 5.8 2.3 2.1 4.7 3.8 5.4 3.8 0.6 0 1.2 0.5 1.2 1 0 0.6 0.7 1 1.5 1 0.8 0 1.5 0.5 1.5 1 0 0.6 0.6 1 1.3 1 0.8 0 2.4 1.1 3.7 2.5 l2.3 2.5 -3.6 1.5 c-7.5 3.1 -25.7 6.4 -25.7 4.6z m-14.5 -55 c-0.8 -1.7 -1.3 -3.1 -1 -3.1 0.3 0 0.1 -0.9 -0.5 -2 -1.6 -3.1 -3 -2.4 -1.5 0.8 0.8 1.5 1.9 4 2.5 5.6 0.6 1.6 1.3 2.6 1.6 2.3 0.3 -0.3 -0.2 -1.9 -1.1 -3.6z m-22.5 -44.8 c0 -0.9 -0.3 -1.3 -0.6 -1 -0.4 0.3 -1.5 0.2 -2.5 -0.4 -1.1 -0.5 -1.9 -0.6 -1.9 -0.2 0 0.7 0.9 1.3 4.8 3.2 0.1 0 0.2 -0.6 0.2 -1.6z"/>
  <path d="M862.8 284.3 c-1 -0.2 -1.8 -0.9 -1.8 -1.4 0 -0.6 -0.4 -0.8 -0.8 -0.5 -0.5 0.3 -2 -0.5 -3.4 -1.7 -1.5 -1.2 -3.9 -3.1 -5.4 -4.2 -8.4 -6.2 -14 -11.3 -13.1 -12.1 1 -1 6.8 0.7 7.4 2.2 0.3 0.8 0.9 1.4 1.5 1.4 1.5 0 3.8 2.7 3.8 4.4 0 1 0.9 1.6 2.5 1.6 1.5 0 2.5 0.6 2.5 1.4 0 0.7 1.2 1.6 2.8 1.9 3.2 0.7 7.2 4.1 7.2 6.2 0 1.5 -0.2 1.6 -3.2 0.8z"/>
  <path d="M895.8 276.7 c-2.1 -1.2 -4.7 -3 -5.8 -3.9 -1.1 -1 -2.4 -1.8 -2.8 -1.8 -1.4 0 -10.4 -9 -9.1 -9.1 2 -0.1 6.2 -0.9 7.7 -1.4 2.2 -0.8 1.2 -2.2 -1.3 -1.7 -2 0.3 -2.5 0 -2.5 -1.6 0 -1.4 0.9 -2.1 3.3 -2.6 1.7 -0.3 5.9 -1.7 9.2 -3 3.3 -1.3 7.5 -3 9.3 -3.6 1.7 -0.7 3.2 -1.9 3.2 -2.6 0 -0.8 0.6 -1.4 1.3 -1.4 0.7 0 1.8 -0.9 2.5 -2 0.8 -1.4 2.3 -2 4.9 -2 l3.6 0 -2.4 2.6 c-2.5 2.7 -9.2 7 -18.2 11.6 -2.8 1.5 -4.9 2.7 -4.5 2.7 1.2 0.1 11.2 -4 11.8 -4.8 0.3 -0.4 2.3 -1.8 4.5 -3.1 2.2 -1.3 4.2 -2.6 4.5 -2.9 0.3 -0.4 1.3 -1.2 2.3 -2 1.5 -1.2 1.7 -1.1 1.7 1.8 0 2.4 -0.4 3.1 -2 3.1 -1.1 0 -2 0.7 -2 1.5 0 0.8 -0.5 1.5 -1.1 1.5 -0.6 0 -1.7 0.7 -2.5 1.5 -0.9 0.8 -2.4 1.5 -3.5 1.5 -1.1 0 -2.2 0.6 -2.5 1.4 -0.9 2.4 -14.8 6.9 -19.4 6.3 -2.3 -0.3 -3.8 -0.1 -3.4 0.4 0.3 0.5 1.2 0.9 2 0.9 0.8 0 1.4 0.5 1.4 1 0 0.6 0.7 1 1.5 1 0.7 0 1.8 0.6 2.2 1.3 0.4 0.6 2.5 2.1 4.7 3.2 2.1 1.1 4.1 2.5 4.3 3.2 1.1 3 8.3 0.6 8.3 -2.7 0 -1.4 0.7 -2 2.4 -2 3.2 0 10.6 -7.4 10.6 -10.6 0 -1.7 0.6 -2.4 2 -2.4 1.5 0 2 -0.7 2 -2.5 0 -1.4 0.4 -2.5 0.9 -2.5 0.5 0 1.2 -1.1 1.5 -2.5 0.4 -1.4 1.1 -2.5 1.6 -2.5 0.6 0 1 -0.9 1 -1.9 0 -1.1 0.6 -2.6 1.4 -3.3 1.4 -1.4 2.7 -7.8 1.6 -7.8 -1.1 0 -3 2.4 -3 3.8 0 2.3 -2.8 4.4 -5.5 4 l-2.5 -0.3 2.6 -3 c4.6 -5.3 11.5 -16.7 11.8 -19.7 0.1 -0.4 0.6 -1.2 1.3 -1.9 3.3 -3.3 2.6 10.8 -1.1 21.1 -0.9 2.5 -1.8 5.2 -2 6 -0.5 1.9 -5.4 11.3 -6.4 12 -0.4 0.3 -2.6 3.1 -5 6.3 -4.2 5.6 -16.8 16 -20.7 17 -1.1 0.3 -3.6 -0.4 -5.7 -1.6z m-3.8 -18.7 c2.4 -1.5 0.7 -1.8 -2 -0.3 -1.4 0.7 -1.8 1.3 -1 1.3 0.8 0 2.2 -0.4 3 -1z"/>
  <path d="M920.5 235.1 c0.4 -3.2 1.4 -5.3 3.5 -7.1 1.7 -1.5 3 -3.1 3 -3.7 0 -1.7 5 -12.4 6.5 -13.9 2.2 -2.2 3.8 -1.8 2.5 0.7 -0.7 1.1 -0.9 2.3 -0.6 2.6 0.7 0.7 -4 11 -5.9 12.9 -0.8 0.8 -1.5 2.1 -1.5 2.7 0 0.7 -1.9 3.2 -4.1 5.7 l-4.1 4.5 0.7 -4.4z"/>
  <path d="M932.8 196 c-2 -6.7 -2.2 -9.6 -0.8 -10.5 0.6 -0.3 1 0.1 1 0.9 0 0.9 0.5 1.6 1.1 1.6 0.5 0 0.8 0.4 0.4 0.9 -0.3 0.5 -0.1 1.2 0.5 1.6 0.6 0.4 0.8 1 0.5 1.5 -0.3 0.5 -0.1 1.1 0.5 1.5 0.6 0.4 0.8 1.1 0.5 1.6 -0.4 0.5 -0.3 1.5 0.1 2.1 1.4 2.2 1.1 4.8 -0.5 4.8 -1.1 0 -2.2 -1.9 -3.3 -6z"/>
  <path d="M799 186.3 c0 -2.9 9.8 -18.2 13.5 -21.1 1.5 -1.2 4.5 -2.7 6.6 -3.4 2.2 -0.6 3.9 -1.5 3.9 -2.1 0 -0.5 -0.7 -0.7 -1.5 -0.3 -0.8 0.3 -1.5 0.2 -1.5 -0.2 0 -1.1 3.2 -3.6 8.4 -6.7 3.7 -2.2 4.6 -2.4 4.6 -1.1 0 0.9 -0.4 1.6 -1 1.6 -1.1 0 -8 6.2 -8 7.2 0 0.4 0.7 0.5 1.5 0.2 1 -0.4 1.5 0 1.5 1.4 0 1.9 -3.7 3.4 -10.5 4.4 -1.2 0.2 -2.1 1.2 -2.3 2.6 -0.2 1.3 -1.2 2.8 -2.3 3.5 -1 0.6 -1.9 1.7 -1.9 2.3 0 0.7 -0.9 1.4 -2 1.7 -1.4 0.3 -2 1.4 -2 3.1 0 2.4 0.4 2.6 4 2.6 5.1 0 5.2 1.6 0.3 2.3 -4.7 0.7 -7.3 1.3 -9.5 2.2 -1 0.4 -1.8 0.3 -1.8 -0.2z"/>
  <path d="M885.5 170 c0.4 -0.6 1.1 -0.8 1.6 -0.4 0.5 0.3 0.8 0 0.7 -0.8 -0.2 -0.7 0.3 -1.2 1 -1 0.8 0.1 1.1 -0.2 0.8 -0.7 -0.4 -0.5 0.5 -1.8 1.9 -3 1.5 -1.1 2.5 -2.3 2.5 -2.7 -0.2 -0.7 2 -2.4 3.3 -2.4 0.4 0 0.7 1.1 0.7 2.5 0 2 -0.5 2.5 -2.5 2.5 -1.5 0 -2.5 0.6 -2.5 1.5 0 2.4 -3.3 5.5 -5.8 5.5 -1.3 0 -2 -0.4 -1.7 -1z"/>
  <path d="M870 168.5 c0 -0.8 -1.4 -1.7 -3.5 -2.1 -1.9 -0.3 -3.5 -1 -3.5 -1.5 0 -0.4 -1.8 -1.4 -4 -2 -2.2 -0.7 -4 -1.8 -4 -2.6 0 -1.1 0.5 -1.1 2 -0.3 1.1 0.6 2 0.8 2 0.4 0 -0.3 0.7 -0.1 1.5 0.6 0.8 0.7 1.5 0.9 1.5 0.5 0 -0.4 0.7 -0.2 1.5 0.5 0.8 0.6 1.9 0.9 2.4 0.6 0.5 -0.4 1.4 0.2 2 1.1 0.9 1.7 1 1.7 1.7 -0.1 0.8 -2.2 -1.3 -3.8 -4 -3 -1.4 0.5 -1.6 0.3 -1.1 -0.7 0.5 -0.8 0.5 -1.1 0 -0.7 -0.4 0.4 -1.4 0.3 -2.1 -0.3 -0.7 -0.5 -2.5 -1.1 -4 -1.2 -1.5 -0.1 -2.9 -0.8 -3.2 -1.5 -0.9 -2.7 11.4 -0.4 13.1 2.5 0.4 0.7 1.9 1.3 3.2 1.3 1.6 0 2.5 0.6 2.5 1.5 0 0.9 0.9 1.5 2.5 1.5 2 0 2.5 0.5 2.5 2.5 0 1.4 -0.4 2.5 -1 2.5 -0.5 0 -1 -0.5 -1 -1.2 0 -0.6 -0.3 -0.9 -0.6 -0.5 -0.4 0.3 -1.3 0 -2.1 -0.8 -1.7 -1.7 -4.3 -2 -4.3 -0.5 0 0.9 1.5 1.4 2.3 0.8 0.4 -0.4 3.7 2.9 3.7 3.6 0 0.3 -1.3 0.6 -3 0.6 -2 0 -3 -0.5 -3 -1.5z"/>
  <path d="M883 166.8 c0 -2.8 3.2 -5.8 6 -5.8 1.3 0 2 -0.7 2 -2 0 -1.1 0.7 -2 1.5 -2 2.4 0 1.7 2.9 -1 4.2 -1.4 0.6 -2.4 1.7 -2.1 2.4 0.3 0.8 -0.1 1.1 -1 0.7 -1.1 -0.4 -1.5 0 -1.2 1.3 0.2 1 -0.1 1.9 -0.7 1.9 -0.5 0 -1.6 0.4 -2.2 0.8 -0.9 0.6 -1.3 0.1 -1.3 -1.5z"/>
  <path d="M843 147 c0 -1.3 3.1 -2.8 5.3 -2.5 0.9 0.2 1.7 -0.1 1.7 -0.6 0 -0.5 1.1 -0.7 2.4 -0.5 1.4 0.2 2.7 -0.1 2.9 -0.7 0.3 -0.9 0.8 -0.9 1.9 0.1 1.3 1 1.7 1 2.1 0 0.3 -0.7 0.6 -0.4 0.6 0.8 0.1 1.8 -0.8 2.2 -6.3 3.2 -7.7 1.5 -10.6 1.5 -10.6 0.2z"/>
  <path d="M874.8 146.3 c-2.1 -0.3 -2.8 -1 -2.7 -2.6 0 -1.2 0.3 -1.6 0.6 -0.9 0.4 1 0.8 1 2.1 0 1.1 -1 1.6 -1 1.9 -0.1 0.2 0.6 1.5 0.9 2.9 0.7 1.3 -0.2 2.4 0 2.4 0.6 0 0.5 0.7 1 1.6 1 0.8 0 1.2 0.5 0.9 1 -0.6 1 -4.4 1.1 -9.7 0.3z"/>
 </g>
 <g fill="#6d6d6d">
  <path d="M336 583.5 c0 -3.8 1.5 -4.5 3.6 -1.7 1.3 1.6 1.3 1.6 1.4 0 0 -1 0.7 -1.8 1.5 -1.8 1 0 1.5 1.1 1.5 3.5 0 3.4 -0.1 3.5 -4 3.5 -3.9 0 -4 -0.1 -4 -3.5z"/>
  <path d="M327.5 573.5 c-15 -21 -33.8 -36.3 -56.6 -46 -7.3 -3.2 -21.5 -7.7 -28 -9 -1.3 -0.3 -3.7 -0.8 -5.4 -1.1 -15 -3 -37.4 -3.4 -52.4 -0.8 -29 4.9 -54.6 17.3 -73.6 35.6 l-8.1 7.7 0.4 -3.7 c1.3 -12 37.3 -34.6 67.2 -42.2 21.3 -5.4 51.7 -6 73 -1.5 1.4 0.3 3.3 0.6 4.2 0.6 1 0 2 0.5 2.3 1 0.4 0.5 1.1 0.7 1.6 0.3 0.5 -0.3 1.6 0 2.4 0.6 0.8 0.7 1.5 0.9 1.5 0.5 0 -0.4 0.7 -0.2 1.5 0.5 0.8 0.7 1.5 0.9 1.5 0.5 0 -0.4 0.7 -0.2 1.5 0.5 0.8 0.7 1.5 0.9 1.5 0.5 0 -0.4 0.7 -0.2 1.5 0.5 0.8 0.7 1.5 0.9 1.5 0.5 0 -0.4 0.7 -0.2 1.5 0.5 0.8 0.7 1.5 0.9 1.5 0.6 0 -0.4 1.2 -0.1 2.8 0.7 1.5 0.8 5.6 2.8 9.2 4.6 3.6 1.7 8.5 4.3 11 5.7 10.8 6.3 28.7 21.5 27.5 23.4 -0.3 0.5 -0.1 1.1 0.5 1.5 0.5 0.3 1.1 2.1 1.1 3.8 l0.2 3.2 0.6 -3.4 0.6 -3.5 2.9 3.4 c1.6 2 2.4 3.6 1.7 3.8 -1.4 0.5 -1.5 6.2 -0.1 6.2 0.6 0 1 -1.1 1 -2.5 0 -3.4 1.1 -3.1 3.8 1 1.7 2.7 1.9 3.5 0.8 3.5 -0.8 0 -1.6 1.2 -1.8 2.7 l-0.3 2.6 -2 -2.8z"/>
  <path d="M340.7 552 c-0.3 -1.1 -0.1 -2 0.4 -2 0.5 0 1.2 -1.8 1.5 -4 0.6 -3.4 1 -4 3.2 -4 2.2 0 2.4 0.3 1.8 3.3 -0.4 1.7 -1.1 3.4 -1.6 3.5 -0.6 0.2 -1 1.5 -1 2.8 0 3 -3.5 3.4 -4.3 0.4z"/>
  <path d="M344 535.1 c0 -1.6 -0.4 -4.1 -1 -5.5 -0.7 -1.8 -0.6 -2.6 0.1 -2.6 0.7 0 1 -1.4 0.7 -3.5 -0.2 -1.9 0 -3.5 0.4 -3.5 0.4 0 0.8 -0.7 0.8 -1.5 0 -0.8 0.7 -1.5 1.6 -1.5 1.4 0 1.5 0.9 0.9 6.6 -0.5 4.8 -0.3 6.9 0.5 7.4 2 1.2 0.2 7 -2.1 7 -1.4 0 -1.9 -0.7 -1.9 -2.9z"/>
  <path d="M345.7 510 c-0.3 -1.1 -0.1 -2 0.5 -2 0.6 0 0.8 -1.1 0.6 -2.5 -0.3 -1.4 -0.1 -2.5 0.5 -2.5 0.5 0 0.7 -1.1 0.5 -2.5 -0.3 -1.4 -0.1 -2.5 0.3 -2.5 0.5 0 0.9 -0.7 0.9 -1.5 0 -0.8 0.7 -1.5 1.5 -1.5 0.8 0 1.5 0.9 1.5 1.9 0 1.1 0.5 2.1 1.1 2.3 1.5 0.5 -0.6 10.9 -2.4 12 -2.2 1.4 -4.5 0.8 -5 -1.2z"/>
  <path d="M351.8 484.2 c-0.3 -1 0.2 -2.4 0.9 -3.1 0.8 -0.8 1.3 -2.4 1 -3.7 -0.2 -1.3 0 -2.4 0.5 -2.4 0.6 0 0.8 -0.7 0.4 -1.5 -0.3 -0.8 -0.1 -1.5 0.5 -1.5 0.6 0 0.9 -0.5 0.7 -1.2 -0.4 -1.1 2.5 -4.8 3.7 -4.8 0.9 0 0.5 5.7 -0.7 9 -0.8 2.4 -0.8 3.5 -0.1 3.7 0.8 0.3 0.8 1.4 0 3.8 -0.8 2.9 -1.5 3.5 -3.8 3.5 -1.7 0 -2.8 -0.6 -3.1 -1.8z"/>
  <path d="M525.5 466.4 c-1.1 -0.8 -1.9 -2.2 -1.7 -3 0.2 -0.8 -0.1 -1.4 -0.5 -1.4 -0.5 0 -1 -1 -1 -2.2 -0.1 -1.3 -0.7 -2.4 -1.3 -2.6 -0.5 -0.2 -0.8 -0.8 -0.4 -1.3 0.3 -0.5 0 -0.9 -0.5 -0.9 -0.6 0 -1 -0.3 -0.9 -0.7 0.3 -1.6 -1.5 -6.3 -2.4 -6.3 -0.5 0 -0.6 -0.4 -0.3 -1 0.3 -0.5 0.1 -1 -0.5 -1 -0.6 0 -0.8 -0.4 -0.5 -1 0.3 -0.5 0.1 -1 -0.5 -1 -0.6 0 -0.8 -0.4 -0.5 -1 0.3 -0.5 0.1 -1 -0.5 -1 -0.6 0 -0.8 -0.4 -0.5 -1 0.3 -0.5 0.2 -1 -0.2 -1 -0.5 0 -1.5 -1.6 -2.2 -3.5 -0.7 -1.9 -1.6 -3.5 -2 -3.5 -0.5 0 -1.1 -0.9 -1.4 -2 -0.3 -1.3 0 -2 0.9 -2 0.8 0 1.4 -0.7 1.4 -1.6 0 -2.3 1.8 -1.3 4.1 2.4 l2.1 3.2 -2.1 0 c-1.2 0 -2.1 0.6 -2.1 1.5 0 0.8 0.9 1.5 2 1.5 3.5 0 6.4 4 11.5 16.2 3.8 9.1 5.2 11.5 6.2 10.6 0.7 -0.5 1 -1.4 0.7 -1.9 -0.3 -0.5 0.5 -0.9 1.6 -0.9 1.3 0 2.4 -0.8 2.7 -2 0.3 -1.1 1.4 -2 2.5 -2 1 0 1.6 -0.4 1.3 -1 -0.3 -0.5 0.3 -1 1.5 -1 1.2 0 1.8 -0.4 1.5 -1 -0.3 -0.5 0.3 -1 1.5 -1 1.2 0 1.9 -0.4 1.6 -0.9 -0.4 -0.5 0.8 -1.3 2.6 -1.6 4.5 -1 12.8 -5.3 12.8 -6.6 0 -0.6 0.9 -0.9 2 -0.6 1.2 0.3 2.3 -0.1 2.9 -1 0.5 -0.9 2.5 -1.6 5.1 -1.8 2.3 -0.1 4.5 -0.7 4.9 -1.2 0.3 -0.5 2.6 -0.9 5 -0.9 2.6 0 4.6 -0.4 4.8 -1.1 0.3 -0.9 1.9 -1 4.9 -0.6 3 0.4 4.4 0.2 4.4 -0.6 0 -1.7 13.9 -1.2 16.6 0.6 1.6 1 2.8 1.1 4.7 0.4 1.8 -0.7 2.8 -0.7 3.3 0 0.3 0.6 1.7 0.9 3 0.6 1.4 -0.2 3.1 0.3 4.4 1.5 1.1 1 2 1.5 2 1 0 -1.5 3.7 -0.7 6.4 1.3 2.4 1.8 3.7 6.5 1.9 6.5 -0.5 0 -3.5 -0.9 -6.8 -1.9 -3.3 -1 -10.2 -2.4 -15.2 -3.1 -6.6 -0.9 -9.3 -1.7 -9.3 -2.6 0 -0.8 -1.1 -1.4 -2.5 -1.4 -1.5 0 -2.5 0.6 -2.5 1.4 0 1 -1.9 1.6 -6.7 2.1 -18 1.9 -36.9 9.2 -52.3 20.3 -9.1 6.6 -13.4 7.7 -17.5 4.6z"/>
  <path d="M359.8 460.3 c-0.3 -1.6 2.3 -5.3 3.7 -5.3 0.3 0 0.5 1.6 0.5 3.5 0 2.8 -0.4 3.5 -1.9 3.5 -1.1 0 -2.1 -0.8 -2.3 -1.7z"/>
  <path d="M649.3 449.3 c-3.7 -1.9 -4.6 -5.3 -1.3 -5 1.1 0.1 2 0.5 2 1 0 0.4 0.5 0.5 1 0.2 0.6 -0.3 1 -0.1 1 0.5 0 0.6 0.5 0.8 1 0.5 0.6 -0.3 1 -0.1 1 0.5 0 0.6 0.3 0.9 0.8 0.7 0.4 -0.3 1.6 0.4 2.6 1.4 1.9 1.9 1.9 1.9 -1.5 1.8 -1.9 0 -4.9 -0.8 -6.6 -1.6z"/>
  <path d="M368 445.5 c0 -3.3 0.2 -3.5 3.4 -3.5 l3.3 0 -1.6 3.5 c-2.2 4.7 -5.1 4.7 -5.1 0z"/>
  <path d="M500.8 420.8 l-2.7 -3.3 2.5 -0.3 c3.3 -0.4 3.6 -0.1 3.2 3.8 l-0.3 3.2 -2.7 -3.4z"/>
 </g>
 <g fill="#ff6600">
  <path d="M588.5 1122.9 c-107.4 -6 -204.9 -41.7 -288 -105.4 -83.9 -64.4 -147 -155.4 -177.3 -255.6 -6.8 -22.4 -13.3 -50.4 -16.6 -71.7 l-0.3 -2.2 78.3 0 c69 0 78.4 -0.2 78.4 -1.5 0 -0.8 0.7 -1.5 1.5 -1.5 1.2 0 1.5 8.8 1.7 66.2 0.3 65.7 0.3 66.3 2.5 70.3 2.4 4.6 5.4 7.5 10.3 10.1 3.3 1.8 7 1.9 70 1.9 63 0 66.7 -0.1 70 -1.9 4.9 -2.6 7.9 -5.5 10.3 -10.1 2.2 -4 2.2 -4.6 2.5 -70.2 0.2 -57.5 0.5 -66.3 1.7 -66.3 0.8 0 1.5 0.7 1.5 1.5 0 1.2 1.3 1.5 6 1.5 4.7 0 6 -0.3 6 -1.5 0 -0.8 0.7 -1.5 1.5 -1.5 1.3 0 1.5 8 1.5 66.3 0 64.4 0.1 66.3 2.1 70.7 2.5 5.6 4.4 7.7 9.4 10.4 4 2.1 4.4 2.1 71 2.1 63.5 0 67.2 -0.1 70.5 -1.9 4.9 -2.6 7.9 -5.5 10.3 -10.1 2.2 -4 2.2 -4.6 2.5 -70.7 0.2 -57.9 0.5 -66.8 1.7 -66.8 0.8 0 1.5 0.7 1.5 1.5 0 1.2 1.3 1.5 6 1.5 4.7 0 6 -0.3 6 -1.5 0 -0.8 0.7 -1.5 1.5 -1.5 1.3 0 1.5 8.8 1.7 68.3 l0.3 68.4 2.8 4 c1.5 2.2 4.6 5 7 6.4 l4.2 2.4 58.5 0.3 c42 0.3 60 0 63.9 -0.8 7 -1.6 13.2 -7.5 14.9 -14.2 0.9 -3.3 1.2 -23.5 1.2 -69.7 0 -57.2 0.2 -65.1 1.5 -65.1 0.8 0 1.5 0.7 1.5 1.5 0 1.2 1.3 1.5 6 1.5 4.7 0 6 -0.3 6 -1.5 0 -0.8 0.7 -1.5 1.5 -1.5 1.3 0 1.5 8.1 1.5 67 0 58.3 0.2 67.6 1.5 70.8 2.1 4.9 5.2 8.1 10 10.3 3.7 1.7 7.8 1.9 64.5 1.9 56.7 0 60.8 -0.2 64.5 -1.9 4.8 -2.2 7.9 -5.4 10 -10.3 1.3 -3.2 1.5 -12.5 1.5 -70.8 0 -58.9 0.2 -67 1.5 -67 0.8 0 1.5 0.7 1.5 1.5 0 1.3 9.4 1.5 78.9 1.5 l78.8 0 -0.3 2.2 c-13 84.2 -47.9 165.4 -99.9 233.3 -64.4 83.9 -155.4 147 -255.6 177.3 -42.8 13 -80.9 19.6 -128.9 22.2 -20.2 1.1 -23.7 1.1 -44.5 -0.1z"/>
 </g>
 <g fill="#7f7f7f">
  <path d="M342.7 607.3 c-0.2 -0.4 -1.6 -4.4 -3.1 -8.8 -5.9 -17.8 -19.7 -38 -35.2 -51.5 -4.6 -4 -17 -13 -20.6 -15 -1.8 -1 -4.8 -2.7 -6.5 -3.6 -4.8 -2.6 -4.4 -4.9 0.4 -2.8 2.1 0.9 5.7 2.3 8 3.2 2.4 0.8 4.1 1.8 3.8 2.2 -0.3 0.5 0.8 1.1 2.5 1.5 1.7 0.4 2.8 1.1 2.4 1.6 -0.3 0.5 0.4 0.9 1.5 0.9 1.2 0 2.1 0.5 2.1 1 0 0.6 0.7 1 1.5 1 0.9 0 1.8 0.7 2.1 1.5 0.4 0.8 1.3 1.5 2 1.5 0.8 0 1.7 0.7 2 1.5 0.4 0.8 1.1 1.5 1.8 1.5 1.8 0 17.9 17 22.8 24 6.4 9.2 9.9 15.6 9.1 16.3 -0.3 0.4 -0.1 0.7 0.5 0.7 0.9 0 1.2 -4 1.2 -13.9 0 -63 17.6 -122.5 46.7 -158.4 3.1 -3.7 6.2 -6.7 6.9 -6.7 0.8 0 1.4 -0.6 1.4 -1.4 0 -2.2 4 -4.6 7.7 -4.6 1.8 0 3.3 0.3 3.3 0.7 0 0.3 -3.1 3.6 -6.8 7.3 -8.5 8.3 -15.7 17.9 -21.9 28.8 -2.5 4.6 -5.2 8.6 -6 8.9 -0.7 0.3 -1 0.9 -0.7 1.4 0.3 0.5 -1.2 5.1 -3.4 10.2 -2.1 5.1 -5.1 12.9 -6.6 17.5 -1.5 4.5 -3.2 8.2 -3.7 8.2 -0.6 0 -0.7 0.5 -0.4 1.1 0.8 1.2 -3.4 18.9 -4.5 18.9 -0.4 0 -0.5 1.1 -0.2 2.5 0.2 1.5 0 2.5 -0.7 2.5 -0.7 0 -0.9 0.5 -0.6 1 0.7 1.2 -2.6 26 -3.5 26 -0.3 0 -0.3 2.5 -0.2 5.5 0.3 3.7 0 5.5 -0.8 5.5 -0.6 0 -0.9 0.3 -0.7 0.8 0.3 0.4 0.6 14.4 0.8 31.2 l0.4 30.5 -2.2 0.3 c-1.1 0.2 -2.3 0 -2.6 -0.5z"/>
  <path d="M524.8 463.6 c-1.3 -2.3 -2.8 -5.4 -3.2 -6.9 -0.4 -1.6 -1.1 -3.4 -1.6 -4 -0.5 -0.7 -3 -5.1 -5.4 -9.9 -7.4 -14.4 -13.5 -22.9 -24.4 -34.1 -19.9 -20.4 -43 -26.7 -65.8 -17.8 l-7.4 2.9 0 -3.3 c0 -3.1 0.2 -3.3 6.8 -5.4 3.7 -1.1 8 -2.1 9.4 -2.1 1.5 0 3 -0.4 3.3 -1 0.8 -1.2 11.9 -1.3 14.3 -0.1 0.9 0.5 4.6 1.4 8 2 6.3 1.2 13.4 3.9 14 5.3 0.2 0.5 1 0.8 1.8 0.8 2.9 0 12.9 7.3 20.3 14.9 7.3 7.3 18.1 21.7 18.1 24 0 0.6 0.4 1.1 0.8 1.1 0.9 0 5.7 9.1 5.4 10.3 -0.1 0.4 0.3 0.7 0.9 0.7 0.5 0 0.7 0.5 0.4 1 -0.3 0.6 0 1 0.7 1 0.9 0 0.9 0.3 -0.2 1 -1.3 0.8 -1.3 1 0.1 1 1.4 0 3.2 3.5 2.8 5.6 0 0.4 0.5 1.1 1.3 1.5 1 0.7 1 0.9 0.1 0.9 -0.7 0 -1.3 0.5 -1.3 1 0 0.6 0.6 1 1.4 1 0.8 0 1.6 0.7 2 1.5 0.3 0.8 0.1 1.5 -0.4 1.5 -0.6 0 -1 0.5 -1 1 0 0.6 0.6 1 1.4 1 0.8 0 1.7 0.9 2.1 2 0.6 1.8 1.3 1.4 7.8 -3.6 9 -6.9 28.7 -16.7 39.2 -19.4 18.7 -4.8 38.9 -4.8 56.6 0.1 8 2.2 28.5 11.6 31.2 14.4 0.9 0.9 1.7 3.2 1.7 5.1 l0 3.5 -4.6 -3.1 c-5.4 -3.8 -18.8 -10.6 -22.6 -11.5 -1.6 -0.4 -2.8 -1.1 -2.8 -1.7 0 -0.5 -0.4 -0.7 -0.9 -0.4 -0.5 0.4 -2.2 0.1 -3.8 -0.5 -1.5 -0.7 -3.2 -1.3 -3.8 -1.4 -0.5 -0.1 -1.4 -0.3 -2 -0.5 -0.5 -0.1 -2 -0.1 -3.2 0 -1.3 0.1 -2.3 -0.2 -2.3 -0.7 0 -0.5 -1.6 -0.7 -3.5 -0.5 -2 0.2 -3.5 0 -3.5 -0.6 0 -0.6 -2.2 -0.8 -5.9 -0.5 -3.3 0.3 -7.3 0.1 -9.1 -0.5 -2.5 -0.9 -3.2 -0.9 -3.7 0.4 -0.4 1.2 -1.5 1.4 -4.4 0.9 -2.6 -0.5 -3.9 -0.3 -3.9 0.4 0 0.7 -1 0.9 -2.5 0.5 -1.6 -0.4 -2.5 -0.2 -2.5 0.6 0 0.6 -0.5 0.8 -1 0.5 -1.5 -0.9 -16.5 4.1 -24.5 8.3 -7.1 3.7 -22.5 14 -22.5 15.1 0 0.3 -1.3 0.6 -2.9 0.7 -2.3 0.1 -3.3 -0.7 -5.3 -4z"/>
 </g>
 <g fill="#8c8c8c">
  <path d="M342 603 c0 -1.1 0.7 -2 1.5 -2 0.8 0 1.5 0.5 1.5 1 0 0.6 0.8 1 1.8 1.1 1.4 0 1.4 0.2 -0.3 0.9 -3.3 1.4 -4.5 1.1 -4.5 -1z"/>
  <path d="M693 489 c-7.7 -10 -15.5 -18.1 -22.5 -23.6 -4.1 -3.1 -7.5 -6.1 -7.5 -6.6 0 -0.5 -0.4 -0.7 -0.9 -0.3 -0.6 0.3 -1.5 -0.4 -2.1 -1.5 -0.6 -1.1 -1.5 -1.8 -2.1 -1.5 -0.5 0.4 -0.9 0.1 -0.9 -0.5 0 -0.6 -0.4 -0.8 -1 -0.5 -0.5 0.3 -1 0.2 -1 -0.3 0 -0.5 -1.6 -2 -3.5 -3.3 -1.9 -1.3 -3.5 -2.7 -3.5 -3.1 0 -2.1 10 0.5 12 3.1 0.3 0.4 1.6 1.1 3 1.7 5 2.2 15.1 10.7 24 20.1 9.3 9.9 10.4 11.7 9.8 17.4 l-0.3 3.3 -3.5 -4.4z"/>
  <path d="M709.3 482.5 c-0.7 -0.8 -1.3 -3.9 -1.3 -7 0 -5.4 0 -5.5 3 -5.5 l3 0 0 7 c0 6 -0.2 7 -1.7 7 -1 -0.1 -2.4 -0.7 -3 -1.5z"/>
  <path d="M708 465.6 c0 -3.5 1 -5.6 2.6 -5.6 1 0 1.4 1.2 1.4 4 0 3.3 -0.3 4 -2 4 -1.4 0 -2 -0.7 -2 -2.4z"/>
  <path d="M710.1 458.1 c-1.1 -0.7 -1.2 -2.7 -0.7 -9.7 2.2 -29.9 9 -64.4 17.9 -91.4 7.4 -22.3 10.5 -27.7 10.9 -19.2 0.3 5.9 0.2 6 -4.7 20.2 -7.5 21.7 -13.1 47.3 -16.9 76.9 -0.9 6.7 -2 11.8 -2.8 12.3 -1 0.8 -1 1.1 0 1.5 0.6 0.2 1.2 2 1.2 3.8 0 6 -1.5 7.7 -4.9 5.6z"/>
  <path d="M383.1 418.8 c2.5 -4.8 11.3 -14.9 17.1 -19.8 7.8 -6.5 17.6 -12.3 25.8 -15.1 9.4 -3.3 27.6 -3.3 37 0 7.8 2.7 20.3 9.8 19.5 11.1 -0.3 0.5 0.5 1.2 1.9 1.6 3.3 0.8 4.7 2.6 3.6 4.4 -0.7 1.1 -1.1 1.2 -2.4 0 -0.9 -0.7 -1.9 -1 -2.3 -0.6 -0.3 0.3 -1.3 -0.3 -2 -1.4 -0.8 -1.1 -1.9 -1.8 -2.4 -1.5 -0.5 0.4 -0.9 -0.1 -0.9 -1 0 -1.1 -0.5 -1.5 -1.4 -1.2 -0.8 0.3 -1.7 -0.1 -2 -1 -0.4 -0.9 -1.3 -1.3 -2.1 -0.9 -0.9 0.3 -1.8 -0.1 -2.2 -1 -0.3 -0.8 -1.2 -1.3 -1.9 -1 -0.8 0.3 -1.4 0 -1.4 -0.6 0 -0.6 -0.3 -0.9 -0.6 -0.5 -0.4 0.3 -1.3 -0.1 -2.1 -0.9 -0.9 -0.8 -2.3 -1.2 -3.4 -0.9 -1.1 0.4 -1.9 0.2 -1.9 -0.5 0 -0.7 -0.8 -0.9 -2 -0.5 -1.1 0.4 -2 0.2 -2 -0.4 0 -0.6 -1.2 -0.8 -3 -0.4 -2.3 0.4 -3.4 0.1 -4.4 -1.2 -0.9 -1.2 -1.5 -1.4 -2 -0.7 -0.5 0.8 -1.5 0.8 -3.2 0.2 -1.8 -0.7 -2.6 -0.6 -3 0.4 -0.3 0.8 -2.1 1.3 -5.1 1.2 -2.9 -0.1 -4.8 0.4 -5.1 1.2 -0.2 0.6 -0.8 1 -1.3 0.6 -1.3 -0.7 -7.9 1.8 -8 3.1 0 1.4 -15.1 11 -16.7 10.6 -1.8 -0.3 -4.3 1.9 -3.6 3.1 0.9 1.4 -1.5 3.6 -3.5 3.1 -1.1 -0.3 -2.4 0.5 -3.5 2.1 -1 1.6 -1.2 2.6 -0.5 2.6 0.6 0 0.9 0.6 0.6 1.3 -0.2 0.6 -1.3 1.1 -2.4 0.9 -1.3 -0.2 -2.9 0.8 -4.4 2.8 -2.8 3.5 -4.5 4 -2.8 0.8z"/>
 </g>
 <g fill="#9f9f9f">
  <path d="M267 636 c0 -1.4 4.6 -6 6 -6 1.4 0 1.3 4.3 -0.2 5.8 -1.5 1.5 -5.8 1.6 -5.8 0.2z"/>
  <path d="M425.2 635.8 c-1.5 -1.5 -1.6 -5.8 -0.2 -5.8 1.4 0 6 4.6 6 6 0 1.4 -4.3 1.3 -5.8 -0.2z"/>
  <path d="M631.2 551.3 c3.5 -7.4 4.8 -8.1 4.8 -2.8 0 3.1 -0.3 3.5 -2.6 3.5 -1.4 0 -2.4 -0.3 -2.2 -0.7z"/>
  <path d="M784 547.5 c0 -3.2 -0.2 -3.5 -3 -3.5 -2 0 -3 -0.5 -3 -1.5 0 -1 -1 -1.5 -3 -1.5 -2.3 0 -3 -0.4 -3 -2 0 -5.9 13.5 2.6 16.3 10.3 0.5 1.3 0.1 1.7 -1.8 1.7 -2.2 0 -2.5 -0.4 -2.5 -3.5z"/>
  <path d="M639 541.2 c0 -0.7 1.7 -1.8 6.3 -4 0.4 -0.2 0.7 0.8 0.7 2.2 0 2.3 -0.4 2.6 -3.5 2.6 -1.9 0 -3.5 -0.4 -3.5 -0.8z"/>
  <path d="M706 510.8 c-0.8 -1.8 -3.8 -7.3 -6.7 -12.2 -2.9 -4.9 -5.3 -9.2 -5.3 -9.6 0 -0.5 -0.7 -1 -1.5 -1.4 -0.8 -0.3 -1.5 -1.5 -1.5 -2.6 0 -1.2 -0.5 -1.8 -1 -1.5 -0.6 0.3 -1.3 -0.2 -1.6 -1.2 -0.3 -1 -1 -2.6 -1.5 -3.5 -1.5 -2.9 -1.1 -4.2 0.7 -2.7 0.9 0.7 2.6 1.8 3.8 2.4 1.1 0.7 2 1.7 1.9 2.3 -0.2 0.7 0.3 1.2 1 1.2 1.3 0.1 5.9 6 10.1 13.3 1.6 2.6 3 4.7 3.1 4.5 0.1 -0.2 0.5 -11.1 0.9 -24.3 0.4 -13.2 0.8 -25.6 1 -27.5 0.5 -4.9 1.7 -14.9 2.1 -18.5 0.2 -1.6 1.3 -7.9 2.5 -14 1.1 -6 1.8 -11.6 1.5 -12.2 -0.2 -0.7 0.1 -1.3 0.6 -1.3 0.7 0 0.9 -1.1 0.7 -2.5 -0.3 -1.3 -0.2 -2.6 0.1 -2.7 1 -0.5 6.2 -22.9 5.6 -23.9 -0.4 -0.5 -0.2 -0.9 0.3 -0.9 1.1 0 3.3 -8 2.6 -9.2 -0.3 -0.4 -0.1 -0.8 0.3 -0.8 0.6 0 3.8 -9.1 4.9 -14 0 -0.3 0.5 -1.6 1.1 -3 0.6 -1.4 2 -5.2 3.2 -8.5 3.5 -9.4 14.4 -30.7 20.5 -39.9 10.1 -15.4 23.8 -30.8 32.3 -36.3 2.3 -1.5 2.6 -1.5 4.6 0.5 1.1 1.2 1.9 2.3 1.6 2.5 -9.7 6.9 -25.2 24.3 -34.9 39.2 -5.2 7.9 -16.6 30.5 -19.1 37.8 -0.9 2.6 -1.9 3.7 -3.4 3.7 -1.6 0 -1.7 0.2 -0.5 1 1.3 0.8 1.2 1 -0.2 1 -1 0 -1.8 0.5 -1.8 1 0 0.6 0.5 1 1 1 0.6 0 1 0.9 1 1.9 0 1.4 -0.5 1.8 -2 1.4 -2.5 -0.7 -2.6 0.5 -0.2 2.3 1.5 1.2 1.5 1.2 -0.5 0.7 -2.4 -0.6 -3.2 1.2 -1 2 0.7 0.3 0.5 0.6 -0.5 0.6 -2.1 0.1 -2.4 1.7 -0.5 2.4 0.7 0.3 0.5 0.6 -0.5 0.6 -1 0.1 -1.8 0.4 -1.8 0.7 0 0.4 0.8 1.3 1.8 2 1.5 1.2 1.5 1.2 -0.5 0.7 -1.7 -0.4 -2.3 -0.1 -2.3 1 0 0.8 0.6 1.8 1.3 2 0.7 0.3 0.5 0.6 -0.5 0.6 -2.1 0.1 -2.4 1.7 -0.5 2.4 0.7 0.3 0.5 0.6 -0.5 0.6 -2.1 0.1 -2.4 1.7 -0.5 2.4 0.7 0.4 0.6 0.6 -0.4 0.6 -1.3 0.1 -2.3 2.4 -3.9 9.1 -2.2 8.9 -2.2 9.1 -0.4 10.5 1.8 1.3 1.8 1.4 -0.3 0.8 -1.8 -0.4 -2.3 -0.1 -2.3 1.5 0 1.1 0.6 2.3 1.3 2.5 0.7 0.3 0.5 0.6 -0.5 0.6 -1.9 0.1 -2.6 4.1 -0.8 4.1 0.6 0 1 0.5 1 1 0 0.6 -0.7 1 -1.5 1 -2 0 -1.9 2 0.3 3.6 1.6 1.2 1.5 1.3 -0.5 1.4 -1.6 0 -2.3 0.6 -2.3 2 0 1.1 0.5 2 1 2 0.6 0 1 0.7 1 1.5 0 0.8 -0.7 1.5 -1.5 1.5 -1.9 0 -2 2.6 0 3.4 1.8 0.6 0.9 3.6 -1.1 3.6 -1.8 0 -1.8 2.6 0 3.3 1.8 0.7 0.9 4.7 -1 4.7 -0.8 0 -1.4 0.7 -1.4 1.5 0 0.8 0.5 1.5 1 1.5 0.6 0 1 1.4 1 3 0 2 -0.5 3 -1.5 3 -0.8 0 -1.5 0.7 -1.5 1.5 0 0.8 0.5 1.5 1 1.5 0.6 0 1 2 1 4.5 0 3.3 -0.4 4.5 -1.5 4.5 -1.9 0 -2 2.6 -0.2 3.3 0.8 0.3 1.3 1.6 1.1 2.9 -0.1 1.2 -0.3 5.1 -0.3 8.6 -0.1 4.8 -0.4 6.2 -1.6 6.2 -2 0 -2 4.6 -0.1 6.6 1.2 1.1 1.4 4.7 1.3 17.7 l-0.2 16.2 -3.1 0.3 c-2.7 0.3 -3.3 -0.1 -4.4 -3z"/>
  <path d="M609.2 498.8 c-1.5 -1.5 -1.6 -5.8 -0.2 -5.8 1.4 0 6 4.6 6 6 0 1.4 -4.3 1.3 -5.8 -0.2z"/>
  <path d="M461 491.5 c0 -0.8 0.6 -1.5 1.3 -1.6 0.6 0 2.2 -0.2 3.5 -0.5 1.7 -0.3 2.2 0.1 2.2 1.6 0 1.6 -0.7 2 -3.5 2 -2.4 0 -3.5 -0.5 -3.5 -1.5z"/>
  <path d="M802 362.5 c0 -4.6 6.8 -12.8 12.3 -14.8 1.3 -0.5 1.7 -0.1 1.7 1.8 0 2.2 -0.4 2.5 -3.5 2.5 -3.2 0 -3.5 0.2 -3.5 3 0 2 -0.5 3 -1.5 3 -1 0 -1.5 1 -1.5 3 0 2.3 -0.4 3 -2 3 -1.1 0 -2 -0.7 -2 -1.5z"/>
  <path d="M956 361 c0 -2 -0.5 -3 -1.5 -3 -1 0 -1.5 -1 -1.5 -3 0 -2.8 -0.3 -3 -3.5 -3 -3.1 0 -3.5 -0.3 -3.5 -2.5 0 -1.9 0.4 -2.3 1.8 -1.8 3.5 1.3 8.4 5.8 10.3 9.4 2.4 4.9 2.4 6.9 -0.1 6.9 -1.6 0 -2 -0.7 -2 -3z"/>
  <path d="M841 147.6 c0 -0.8 1.2 -1.7 2.8 -2 7 -1.6 8.9 -1.9 11.9 -2 1.8 -0.1 3.3 -0.4 3.3 -0.8 0 -0.5 3.2 -0.8 7 -0.8 3.9 0 7 0.4 7 0.8 0 0.4 1.2 0.7 2.8 0.6 3.9 -0.1 6.2 0.6 6.2 2.2 0 1.1 -2.2 1.2 -11.2 0.8 -8.5 -0.5 -13 -0.2 -18.1 1 -8.5 2 -11.7 2 -11.7 0.2z"/>
 </g>
 <g fill="#ffffff">
  <path d="M463.5 837.1 c-7.7 -1.9 -12.1 -5.9 -15 -13.4 -1.4 -3.8 -1.5 -19.9 -1.3 -162.2 l0.3 -158 3.3 -4.8 c1.9 -2.6 5.1 -5.7 7.5 -7 l4.2 -2.2 70.5 0 70.5 0 4.5 3 c2.4 1.7 5.8 5.1 7.5 7.5 l3 4.5 0 158.5 c0 152.8 -0.1 158.6 -1.9 162 -2.6 4.9 -5.5 7.9 -10.1 10.3 -4 2.2 -4.4 2.2 -72 2.4 -37.4 0 -69.3 -0.2 -71 -0.6z"/>
  <path d="M646.4 837.1 c-4.8 -1.2 -9.2 -4.2 -12.2 -8.5 l-2.7 -3.9 -0.3 -136.4 c-0.2 -132.6 -0.2 -136.4 1.7 -140.1 2.2 -4.3 5.3 -7.3 9.8 -9.6 3 -1.5 9.7 -1.6 68.6 -1.4 l65.3 0.3 4.1 2.7 c2.6 1.7 5 4.5 6.7 7.9 l2.6 5.3 0 132.4 c0 97.5 -0.3 133.5 -1.2 137 -1.5 6.2 -7.8 12.5 -14 14 -5.3 1.3 -123 1.6 -128.4 0.3z"/>
  <path d="M813.5 836.1 c-4.8 -2.2 -7.9 -5.4 -10 -10.3 -1.3 -3.3 -1.5 -28.4 -1.5 -234.1 l0 -230.4 2.3 -4.4 c1.6 -2.9 4 -5.4 7.2 -7.4 l4.8 -3 64.7 0 64.7 0 4.8 3 c3.2 2 5.6 4.5 7.2 7.4 l2.3 4.4 0 230.4 c0 205.7 -0.2 230.8 -1.5 234.1 -2.1 4.9 -5.2 8.1 -10 10.3 -3.8 1.7 -7.9 1.9 -67.5 1.9 -59.6 0 -63.7 -0.2 -67.5 -1.9z"/>
  <path d="M280 836.1 c-6.9 -2.2 -11.2 -5.7 -14.6 -12.1 -1.8 -3.3 -1.9 -7.5 -1.9 -93 l0 -89.5 3 -4.5 c1.7 -2.4 5.1 -5.8 7.5 -7.5 l4.5 -3 70.5 0 70.5 0 4.5 3 c2.4 1.7 5.8 5.1 7.5 7.5 l3 4.5 0 89.5 c0 85.5 -0.1 89.7 -1.9 93 -2.6 4.9 -5.5 7.9 -10.1 10.3 -4 2.2 -4.5 2.2 -72 2.4 -37.4 0.1 -69.1 -0.2 -70.5 -0.6z"/>
  <path d="M852.5 286.5 c-3.8 -0.7 -9.5 -2.2 -12.6 -3.4 -5.1 -2 -16.7 -8.4 -17.9 -9.9 -0.3 -0.4 -2.2 -2 -4.3 -3.5 -8.4 -6.3 -18.8 -23.4 -22.4 -36.7 -2.4 -9.1 -2.4 -26.2 0.1 -35.9 2.1 -8.1 3.2 -9.1 12.5 -10.6 l4.4 -0.7 -0.6 4.8 c-3.3 25 -0.2 41 11.1 58.4 5 7.6 17.4 21.1 24.2 26.5 4.9 3.8 15.1 10.5 16 10.5 0.6 0 1 0.5 1 1 0 1.3 -2.7 1.2 -11.5 -0.5z"/>
  <path d="M862 283.3 c-7.3 -4.4 -12.4 -8.1 -18.4 -13.3 -10.1 -8.6 -16.5 -16.5 -22.5 -27.3 -7.5 -13.7 -10.2 -28.4 -8.3 -44.8 0.7 -5.5 1.5 -10.5 1.8 -11 1.6 -2.6 16.6 0.7 24.9 5.4 4.4 2.5 4.8 3.5 6.6 15.7 3.5 24.5 16.4 46 37.1 61.7 2.9 2.2 7.2 5.2 9.5 6.6 2.3 1.5 4.4 3.1 4.7 3.6 1.1 1.8 -19.6 8 -26.9 8 -0.5 0 -4.4 -2 -8.5 -4.6z"/>
  <path d="M891.3 273 c-12.1 -8.1 -14.1 -9.9 -12.2 -11.1 0.7 -0.5 2.4 -0.9 3.6 -0.9 3.9 0 19.1 -6.1 25.5 -10.2 11.5 -7.3 20.8 -18 26.5 -30.5 4.4 -9.6 5.4 -1.8 1.6 13.1 -3.7 14.8 -13.7 30.1 -25.5 38.9 -4 3 -8.1 5.7 -9 6 -1.1 0.4 -4.8 -1.4 -10.5 -5.3z"/>
  <path d="M871 256.3 c-4 -4.4 -7.7 -9.2 -10.3 -13.4 l-1.8 -2.8 3.2 -1.6 c10.3 -5.4 33.6 -24.3 42.3 -34.4 1.2 -1.4 4 -4.5 6.3 -7 2.3 -2.4 4 -4.8 3.7 -5.3 -0.3 -0.4 0 -0.8 0.5 -0.8 0.6 0 1.1 -0.5 1.1 -1.1 0 -0.7 1 -2 2.2 -3 1.1 -1.1 1.7 -1.9 1.3 -1.9 -0.5 0 0.2 -1.2 1.6 -2.6 1.3 -1.4 2.3 -2.9 2.2 -3.2 -0.4 -1.7 1.6 -3.4 3.3 -2.8 1.9 0.6 7.8 11.8 8.8 16.7 0.3 1.3 0.8 3.5 1.1 4.9 1.2 4.5 1.3 8.5 0.3 9.8 -0.6 0.6 -0.8 1.2 -0.5 1.2 1 0 -4.3 13.3 -7.3 18.2 -4.1 6.7 -4.7 7.3 -10.9 13.5 -9.3 9.2 -26.1 17.4 -39 19 -4.4 0.5 -4.8 0.3 -8.1 -3.4z"/>
  <path d="M857.3 236.8 c-4.9 -6.2 -13.4 -42.8 -10 -42.8 2 0 19.2 -9.2 25.4 -13.6 3.4 -2.4 6.6 -4.4 7.2 -4.4 0.6 0 1.1 -0.4 1.1 -1 0 -0.5 0.6 -1 1.3 -1 0.7 0 1.7 -1 2.2 -2.2 0.6 -1.3 1.6 -2.2 2.3 -2 0.7 0.1 1.1 -0.4 1 -1 -0.2 -0.7 0.3 -1.2 1 -1 0.6 0.1 1.1 -0.2 1 -0.7 -0.2 -0.5 1.6 -2.7 4 -4.9 2.3 -2.2 4.2 -4.5 4.2 -5.1 0 -0.6 0.4 -1.1 0.9 -1.1 0.5 0 1.3 -0.9 1.6 -2 0.6 -2 3.5 -2.9 3.5 -1.1 0 0.5 0.9 1.3 2 1.6 1.1 0.4 3.2 1.7 4.5 3.1 1.3 1.3 2.8 2.4 3.3 2.4 1.4 0 7.3 6.6 6.6 7.3 -0.4 0.4 -0.2 0.7 0.4 0.7 0.7 0 1.2 0.7 1.2 1.5 0 0.8 0.5 1.5 1 1.5 0.6 0 1 0.7 1 1.5 0 0.8 -0.4 1.5 -1 1.5 -0.5 0 -1 0.7 -1 1.5 0 0.8 -0.4 1.5 -0.8 1.5 -0.5 0 -1.7 1.9 -2.7 4.3 -1 2.3 -2.6 4.9 -3.5 5.7 -0.9 0.8 -3.2 4 -5.2 7 -4.1 6.5 -16.7 19.6 -25.8 26.9 -3.6 2.8 -7.1 5.6 -7.7 6.1 -2.3 1.9 -16.8 11 -17.4 11 -0.4 0 -1.1 -0.6 -1.6 -1.2z"/>
  <path d="M838.1 189.5 c-3.5 -1.8 -9 -3.8 -12.2 -4.5 -6.7 -1.4 -20.4 -0.9 -23.9 1 -1.2 0.6 -2.4 0.9 -2.7 0.7 -0.7 -0.8 5.3 -11.5 9.9 -17.4 3.5 -4.6 4.9 -5.5 10.3 -7.2 8.9 -2.8 21.8 -4.5 27.8 -3.7 6.5 0.9 12.8 2.1 13.5 2.6 0.1 0.2 0.6 0.3 1.1 0.4 0.5 0 1.3 0.4 1.7 0.8 0.4 0.5 1.6 0.8 2.6 0.8 1 0 1.8 0.5 1.8 1.1 0 0.5 0.5 0.7 1 0.4 0.6 -0.3 1 -0.2 1 0.4 0 0.5 0.8 1.2 1.8 1.5 1 0.4 3.3 1.9 5 3.4 l3.2 2.9 -3.6 2.9 c-5.9 4.7 -24.6 15.2 -29.9 16.7 -1.2 0.4 -4.5 -0.7 -8.4 -2.8z"/>
  <path d="M881 169.5 c0 -0.8 -0.9 -1.5 -2 -1.5 -1.1 0 -2 -0.4 -2 -0.9 0 -0.5 -0.9 -1.3 -2 -1.6 -1.1 -0.4 -3.3 -1.8 -4.7 -3.1 -1.5 -1.4 -3.3 -2.2 -4 -2 -0.7 0.3 -1.3 0 -1.3 -0.6 0 -0.6 -0.3 -0.8 -0.7 -0.5 -0.3 0.4 -1.2 0.2 -1.8 -0.3 -1.3 -1 -6.3 -2.1 -10.2 -2.2 -1.3 0 -2.3 -0.3 -2.3 -0.7 0 -1 -17.1 0.6 -24.1 2.3 -3.3 0.7 -5.9 1 -5.9 0.6 0 -1.6 14.4 -10.4 19 -11.5 0.3 -0.1 1.2 -0.5 2 -0.8 8 -3.5 30.2 -4.6 41 -2.1 3.6 0.9 7 1.7 7.5 1.8 0.6 0.1 1.6 0.5 2.3 0.9 0.6 0.5 1.2 0.5 1.2 0.1 0 -0.4 0.9 0.1 2.1 1.2 1.2 1 2.3 1.8 2.5 1.7 0.9 -0.6 2.4 -0.2 2.4 0.6 0 0.4 -1.3 2.2 -3 3.9 -1.6 1.8 -3 3.6 -3 4.2 0 0.5 -1 1.5 -2.2 2.1 -2.4 1.3 -8.7 7.9 -8.8 9.2 0 1.4 -2 0.7 -2 -0.8z"/>
 </g>
</svg>