<?xml version="1.0" encoding="UTF-8" standalone="no"?>
<svg
   xmlns:dc="http://purl.org/dc/elements/1.1/"
   xmlns:cc="http://creativecommons.org/ns#"
   xmlns:rdf="http://www.w3.org/1999/02/22-rdf-syntax-ns#"
   xmlns:svg="http://www.w3.org/2000/svg"
   xmlns="http://www.w3.org/2000/svg"
   xmlns:sodipodi="http://sodipodi.sourceforge.net/DTD/sodipodi-0.dtd"
   xmlns:inkscape="http://www.inkscape.org/namespaces/inkscape"
   version="1.0"
   width="150"
   height="150"
   viewBox="0 0 150 150"
   preserveAspectRatio="xMidYMid meet"
   id="svg138"
   sodipodi:docname="logo_mini.svg"
   inkscape:version="1.0.2 (e86c870879, 2021-01-15)">
  <metadata
     id="metadata144">
    <rdf:RDF>
      <cc:Work
         rdf:about="">
        <dc:format>image/svg+xml</dc:format>
        <dc:type
           rdf:resource="http://purl.org/dc/dcmitype/StillImage" />
        <dc:title></dc:title>
      </cc:Work>
    </rdf:RDF>
  </metadata>
  <defs
     id="defs142" />
  <sodipodi:namedview
     pagecolor="#ffffff"
     bordercolor="#666666"
     borderopacity="1"
     objecttolerance="10"
     gridtolerance="10"
     guidetolerance="10"
     inkscape:pageopacity="0"
     inkscape:pageshadow="2"
     inkscape:window-width="1514"
     inkscape:window-height="995"
     id="namedview140"
     showgrid="false"
     fit-margin-top="0"
     fit-margin-left="0"
     fit-margin-right="0"
     fit-margin-bottom="0"
     inkscape:zoom="2.9624539"
     inkscape:cx="63.754348"
     inkscape:cy="83.49935"
     inkscape:window-x="50"
     inkscape:window-y="24"
     inkscape:window-maximized="0"
     inkscape:current-layer="svg138"
     inkscape:document-rotation="0"
     showguides="false" />
  <g
     fill="#020202"
     id="g12"
     transform="matrix(0.14672828,0,0,0.14662572,-14.799554,-14.779873)">
    <path
       d="m 263,636.5 c 0,-3.3 0.2,-3.5 3.5,-3.5 3.3,0 3.5,-0.2 3.5,-3.5 0,-3.3 0.2,-3.5 3.5,-3.5 3.3,0 3.5,0.2 3.5,3.5 0,3.3 -0.2,3.5 -3.5,3.5 -3.3,0 -3.5,0.2 -3.5,3.5 0,3.3 -0.2,3.5 -3.5,3.5 -3.3,0 -3.5,-0.2 -3.5,-3.5 z"
       id="path2" />
    <path
       d="m 428,636.5 c 0,-3.3 -0.2,-3.5 -3.5,-3.5 -3.3,0 -3.5,-0.2 -3.5,-3.5 0,-3.3 0.2,-3.5 3.5,-3.5 3.3,0 3.5,0.2 3.5,3.5 0,3.3 0.2,3.5 3.5,3.5 3.3,0 3.5,0.2 3.5,3.5 0,3.3 -0.2,3.5 -3.5,3.5 -3.3,0 -3.5,-0.2 -3.5,-3.5 z"
       id="path4" />
    <path
       d="m 337,582 c 0,-3.9 0.1,-4 3.5,-4 3.4,0 3.5,0.1 3.5,4 0,3.9 -0.1,4 -3.5,4 -3.4,0 -3.5,-0.1 -3.5,-4 z"
       id="path6" />
    <path
       d="m 612,499.5 c 0,-3.3 -0.2,-3.5 -3.5,-3.5 -3.3,0 -3.5,-0.2 -3.5,-3.5 0,-3.3 0.2,-3.5 3.5,-3.5 3.3,0 3.5,0.2 3.5,3.5 0,3.3 0.2,3.5 3.5,3.5 3.3,0 3.5,0.2 3.5,3.5 0,3.3 -0.2,3.5 -3.5,3.5 -3.3,0 -3.5,-0.2 -3.5,-3.5 z"
       id="path8" />
    <path
       d="m 851.2,291.9 c -13.3,-2 -29.7,-10 -39.2,-19.1 -9.7,-9.1 -17.3,-21.9 -21.2,-35.5 -3.2,-11.2 -3.2,-33.4 0,-44.6 3.9,-13.7 10.8,-25.3 20.8,-34.8 6.5,-6.2 13.4,-11 14.6,-10.2 1.8,1 7.8,2.1 7.3,1.3 -0.6,-1 8.6,-4.6 16.9,-6.5 9,-2.1 23.7,-1.9 33.2,0.5 13.7,3.5 32.5,13.9 29.3,16.2 -1.1,0.7 -0.9,0.8 0.5,0.4 1.4,-0.5 3.1,0.6 6.4,4.1 5.8,6.2 12.4,16.3 11.7,18.1 -0.2,0.7 -0.1,1.1 0.4,0.8 1.2,-0.8 3.5,5 2.5,6.5 -0.4,0.8 -0.3,1 0.4,0.5 1.9,-1.2 5.1,13.1 5.2,23 0,5.6 0.4,7.4 1.8,8.7 1.6,1.5 1.8,2.5 1,8 -1,7.8 -3.2,14.4 -7.3,22.7 -9.5,18.9 -27,32.9 -48.2,38.5 -7.2,1.9 -27.6,2.7 -36.1,1.4 z M 886,281.3 c 3.2,-0.9 4.8,-1.8 3.8,-2 -1,-0.3 -1.8,-0.9 -1.8,-1.4 0,-0.5 -0.7,-0.9 -1.5,-0.9 -0.8,0 -1.5,-0.4 -1.5,-1 0,-0.5 -0.6,-1 -1.2,-1 -0.7,0 -3.1,-1.7 -5.4,-3.8 -2.2,-2 -5.2,-4.6 -6.5,-5.8 -2.6,-2.2 -9,-9.3 -12.6,-13.9 -3.3,-4.2 -11.9,-22.2 -14.1,-29.5 -0.9,-3 -1.9,-8.7 -3.8,-21.7 -0.5,-3.3 -1.8,-4.2 -13.9,-9.3 -3.5,-1.5 -9.3,-2.1 -10,-1.1 -0.3,0.6 -1.1,4.8 -1.7,9.5 -0.9,7.1 -0.8,10.3 0.6,18.4 1.6,10 4.2,18.2 5.8,18.2 0.4,0 0.8,0.8 0.8,1.7 0,2.6 8.1,14 15.2,21.5 5.9,6.2 9.6,9.5 16.2,14.3 1.5,1.1 3.7,2.8 4.8,3.8 1.2,0.9 2.7,1.7 3.4,1.7 0.7,0 1.4,0.3 1.6,0.8 0.2,0.4 1.7,1.5 3.3,2.4 3.5,2 10.1,1.7 18.5,-0.9 z m -38.1,-0.6 c -8.2,-6.1 -17.1,-14.3 -21.9,-20.3 -2.5,-3.1 -10.5,-15.7 -11.7,-18.4 -0.6,-1.4 -1.8,-4.1 -2.7,-6.1 -3.1,-7.1 -4.9,-21.6 -4.2,-34.1 0.4,-7.9 0.2,-11.8 -0.5,-11.8 -0.5,0 -2.3,0.7 -3.9,1.5 -3.1,1.6 -3.7,3.1 -6,15 -2.6,12.7 2.2,33.5 10.4,44.9 4.4,6.3 5.3,7.2 10.6,12.6 7.7,7.8 17.9,14 28,17.2 1.4,0.5 2.8,0.1 1.9,-0.5 z M 908.3,269 c 3.7,-2.8 8.6,-7.6 10.9,-10.8 2.4,-3.1 4.9,-6.3 5.6,-7.1 1.2,-1.2 2.3,-3.5 6.8,-13.9 2.2,-5.1 1.7,-5.9 -1.2,-1.6 -3.6,5.3 -12.1,13.5 -16.9,16.4 -2.2,1.3 -4.2,2.7 -4.5,3.1 -0.3,0.5 -4.4,2.2 -9,3.9 -4.7,1.7 -9.3,3.5 -10.2,4.1 -1,0.5 -2.5,0.9 -3.4,0.9 -1.3,0 -1,0.5 0.9,2 1.4,1.1 3,2 3.5,2 0.6,0 1.2,0.3 1.4,0.8 0.6,1.4 6.3,5.1 7.9,5.2 0.9,0 4.6,-2.3 8.2,-5 z M 883,255.5 c 1.9,-0.3 4.4,-1 5.5,-1.5 1.1,-0.4 4,-1.6 6.5,-2.5 2.5,-0.9 5.2,-2.2 6,-2.9 0.8,-0.7 3.6,-2.4 6.1,-3.9 5.3,-3 16.7,-14.9 18.1,-18.9 0.6,-1.6 1.3,-2.8 1.8,-2.8 0.9,0 4.6,-8.4 6.5,-14.6 1.6,-5.2 0.2,-12.1 -4.1,-21.3 -2.8,-5.8 -4.4,-7.6 -4.4,-4.8 0,0.7 -0.9,2.2 -1.9,3.4 -1,1.1 -2.6,3.4 -3.5,5.1 -0.9,1.8 -2,3.2 -2.4,3.2 -0.4,0 -1.3,1.4 -2.1,3.1 -1.3,2.9 -25,27.9 -26.5,27.9 -0.4,0 -1.7,0.9 -2.9,2.1 -1.2,1.1 -5.3,4.1 -9.2,6.6 -3.8,2.6 -7.2,5 -7.5,5.4 -0.3,0.4 -1.6,1.2 -2.8,1.6 -2.2,0.8 -2.1,0.9 1.6,5.4 2,2.5 4.8,6 6.1,7.8 1.5,1.9 3.1,3 4,2.7 0.9,-0.3 3.2,-0.7 5.1,-1.1 z M 861.1,232 c 0.7,0 10,-5.9 14.4,-9.2 7.2,-5.4 24.6,-22.2 30,-29.1 1.7,-2.1 3.7,-4.6 4.5,-5.5 2,-2.3 7,-10 7,-10.7 0,-0.4 0.7,-1.3 1.5,-2.2 1,-0.9 1.3,-2.3 0.9,-3.5 -0.6,-2.1 -6,-7.2 -12.2,-11.9 l -3.6,-2.7 -8.6,8.9 c -4.7,4.9 -9.1,8.9 -9.8,8.9 -0.6,0 -1.2,0.6 -1.2,1.3 0,0.6 -1.7,2.3 -3.8,3.7 -2,1.4 -3.9,2.8 -4.2,3.1 -0.8,1.1 -7.2,4.7 -11.2,6.5 -2.1,0.9 -3.8,2 -3.8,2.5 0,0.5 -0.9,0.9 -2,0.9 -1.1,0 -2,0.4 -2,0.8 0,0.4 -1.6,1.4 -3.5,2.1 -2.3,0.8 -3.5,1.9 -3.5,3.1 0,3.8 4,22.1 5.3,24.3 0.8,1.2 2,4.2 2.7,6.6 0.8,2.4 1.6,3.9 1.8,3.2 0.2,-0.6 0.8,-1.1 1.3,-1.1 z m 77.5,-18.7 c -1.1,-1.1 -1.7,0.4 -0.9,2.3 0.7,1.8 0.8,1.8 1.1,0.1 0.2,-1 0.1,-2.1 -0.2,-2.4 z M 912.8,191 c 1.3,-1.6 1.9,-3 1.4,-3 -0.4,0 -1.6,1.4 -2.5,3 -1,1.7 -1.6,3 -1.4,3 0.2,0 1.3,-1.3 2.5,-3 z m -58.5,-6.2 c 4.5,-2.3 10.8,-6 14,-8.1 5.5,-3.8 5.7,-4 4.1,-5.8 -0.9,-1.1 -2.1,-1.9 -2.7,-1.9 -0.5,0 -2.1,-0.8 -3.5,-1.8 -3,-2.1 -12.4,-4.8 -19.2,-5.7 -5,-0.6 -20.3,1.7 -26.6,4 -4.5,1.7 -7.8,4.9 -11.7,11.1 l -2.6,4.2 11.7,0.4 c 10.7,0.5 20.7,2.6 22.2,4.8 0.6,0.9 4.3,2.9 5.3,3 0.5,0 4.5,-1.9 9,-4.2 z m 25.3,-13.7 c -0.4,-0.5 0,-1.1 0.6,-1.4 0.7,-0.2 0.9,-0.8 0.5,-1.3 -0.4,-0.5 -1.2,-0.2 -1.6,0.5 -0.5,0.8 -1.5,1 -2.2,0.7 -0.8,-0.4 -0.5,0 0.5,0.8 2.2,1.8 3,2 2.2,0.7 z m 10.6,-7.5 c 2.2,-2.3 2.2,-2.7 0.3,-2 -0.8,0.4 -1.5,1 -1.5,1.5 0,0.5 -0.5,0.9 -1.1,0.9 -1.7,0 0.1,-4.1 3.6,-8.4 l 3.3,-4 -8.7,-2.8 c -15.5,-5.2 -27.7,-4.9 -43.1,1 l -7.3,2.9 10.7,0.6 c 7.2,0.4 11.6,1.1 13.2,2.1 1.3,0.9 3.1,1.6 4.1,1.6 1,0 2.7,0.6 3.8,1.4 1.1,0.7 3.3,1.6 4.9,2 1.5,0.4 4.1,1.6 5.6,2.8 2.1,1.5 3.7,1.9 5.9,1.5 3.7,-0.8 3.8,-0.2 0.9,3.2 l -2.3,2.6 3,-2.5 c 1.6,-1.4 3.8,-3.4 4.7,-4.4 z M 869,161 c -2.4,-1.5 -3.7,-1.1 -1.6,0.5 1.1,0.8 2.2,1.2 2.5,0.9 0.3,-0.3 -0.1,-0.9 -0.9,-1.4 z"
       id="path10" />
  </g>
  <g
     fill="#4d4d4d"
     id="g40"
     transform="matrix(0.14672828,0,0,0.14662572,-14.799554,-14.779873)">
    <path
       d="m 106.6,689.3 c -0.3,-1 -1.2,-7.6 -2,-14.8 -8.9,-76 -1.9,-149.3 21,-219.9 68.4,-210.8 265,-353.8 486.4,-353.8 70.3,0 137.1,13.9 203.7,42.4 l 14.3,6.1 -4.6,2.9 c -10.2,6.4 -20.4,18 -26.3,29.6 -5.3,10.5 -7.5,20.2 -7.5,33.2 0,13.2 2.2,22.7 7.8,33.8 17.4,34.5 58.2,49.9 94.6,35.5 7.2,-2.8 17.5,-9.4 23.3,-14.7 11.8,-11 22.7,-32.7 22.7,-45.3 0,-1.8 0.4,-3.3 0.8,-3.3 1.5,0 21.2,18 34.6,31.5 63,63.6 109.1,144.7 131.5,231.6 16.1,62.3 20.2,124.5 12.5,190.4 -0.8,7.2 -1.7,13.8 -2,14.8 -0.5,1.6 -5.2,1.7 -80.5,1.7 H 957 V 527.5 c 0,-159.8 0,-163.7 -1.9,-167.4 -2.2,-4.3 -7,-8.2 -12,-9.9 -4.8,-1.7 -119.4,-1.7 -124.2,0 -5,1.7 -9.8,5.6 -12,9.9 -1.9,3.7 -1.9,7.6 -1.9,167.4 V 691 h -9 -9 v -66.9 c 0,-48.3 -0.3,-67.7 -1.2,-70.2 -1.7,-5 -5.6,-9.8 -10,-12 -3.7,-1.9 -6,-1.9 -66.6,-1.7 l -62.9,0.3 -3.6,2.7 c -1.9,1.6 -4.6,4.3 -5.9,6 l -2.3,3.3 -0.3,69.3 -0.2,69.2 h -9 -9 l -0.2,-91.7 -0.3,-91.8 -2.4,-4 c -3.3,-5.6 -3.5,-5.9 -8.8,-8.6 l -4.7,-2.4 h -67 -67.1 l -4.2,2.2 c -2.4,1.3 -5.6,4.4 -7.5,7 l -3.3,4.8 -0.3,92.3 -0.2,92.2 h -9 -8.9 l -0.3,-23.2 c -0.3,-22.4 -0.4,-23.5 -2.7,-27.3 -3.3,-5.6 -3.5,-5.9 -8.8,-8.6 l -4.7,-2.4 H 349 282.4 l -4.7,2.4 c -5.3,2.7 -5.5,3 -8.8,8.6 -2.3,3.8 -2.4,4.9 -2.7,27.3 l -0.3,23.2 h -79.4 c -74.7,0 -79.4,-0.1 -79.9,-1.7 z M 344,591.1 c 0,-6.8 0,-6.8 -2.5,-6.3 -1.4,0.2 -2.4,1 -2.1,1.6 0.2,0.6 1.3,3.5 2.2,6.4 1,2.8 1.9,5.2 2.1,5.2 0.2,0 0.3,-3.1 0.3,-6.9 z m 366.6,-87.8 c -0.2,-0.3 -1.1,-0.3 -1.9,-0.1 -1.4,0.3 -1.4,0.7 0.1,3.8 l 1.6,3.5 0.4,-3.3 c 0.2,-1.9 0.1,-3.6 -0.2,-3.9 z"
       id="path14" />
    <path
       d="m 856.5,287.4 c -6.6,-1.3 -14.3,-3.1 -15,-3.4 -0.3,-0.1 -0.8,-0.3 -1.2,-0.5 -1.9,-0.5 -11.2,-5.4 -15.3,-8 -4.2,-2.7 -13.7,-11.6 -17,-16 -6.1,-8.2 -10.7,-17.3 -12.7,-25 -2.5,-10 -2.5,-27.7 0,-38.5 1.4,-6 3.9,-8.3 10.7,-9.5 1.7,-0.3 3.7,-0.7 4.3,-0.8 0.9,-0.1 1.1,2 0.9,7.3 -0.4,10.2 -1.8,12 -2.7,3.6 -0.5,-5.4 -1,-6.6 -2.2,-6.2 -0.8,0.3 -2.5,0.6 -3.8,0.6 -1.9,0 -2.4,0.7 -3,4.5 -0.3,2.5 -1.2,5.1 -1.8,5.7 -0.7,0.6 -1.1,2.6 -0.9,4.4 0.3,2.2 -0.2,3.9 -1.3,5 -1.3,1.4 -1.6,2.8 -1.1,6.2 0.3,2.5 0.6,5.5 0.6,6.8 0,1.5 0.6,2.4 1.5,2.4 0.9,0 1.5,0.9 1.5,2.2 0,2.7 5,16.2 6.2,16.6 0.4,0.2 1.1,2.2 1.5,4.4 0.4,2.8 1.2,4.2 2.4,4.5 1.2,0.3 1.9,1.4 1.9,2.9 0,1.7 0.6,2.4 2,2.4 1.4,0 2,0.7 2,2.1 0,2.4 5.7,7.9 8.3,7.9 2.1,0 4,1.6 5,4.3 0.4,1 1.7,1.7 3.2,1.7 1.5,0 2.5,0.6 2.5,1.5 0,1.9 2.5,3.1 7.9,3.8 2.5,0.3 4.8,1.2 5.3,2 0.5,0.9 1.6,1.3 2.8,1 2.7,-0.7 2.6,-2.3 -0.1,-2.3 -1.2,0 -3.2,-1.1 -4.5,-2.5 -1.3,-1.4 -2.6,-2.5 -3,-2.5 -1.3,0 -6.4,-6 -6.4,-7.5 0,-0.8 -0.7,-1.5 -1.5,-1.5 -1.8,0 -6.5,-4.3 -6.5,-6 0,-0.5 -0.4,-1 -1,-1 -0.5,0 -1,-0.7 -1,-1.5 0,-0.8 -0.9,-1.9 -2,-2.5 -1.1,-0.6 -2,-1.7 -2,-2.5 0,-0.8 -0.4,-1.5 -1,-1.5 -0.5,0 -1,-0.9 -1,-2 0,-1.1 -0.7,-2.3 -1.5,-2.6 -0.8,-0.4 -1.5,-1.2 -1.5,-2 0,-0.8 -0.4,-1.4 -1,-1.4 -0.5,0 -1,-1.3 -1,-3 0,-1.6 -0.4,-3 -0.8,-3 -1.3,0 -5.2,-14.3 -5.1,-18.7 0,-2.1 0.4,-4.7 0.9,-5.8 0.7,-1.8 0.9,-1.6 1.5,1.3 0.9,4 2.7,4.3 1.9,0.2 -0.6,-2.6 -0.4,-3 1.5,-3 1.8,0 2.1,0.6 2.1,3.8 0,4.8 4,16.8 8,23.8 1.6,3 3,6.1 3,6.9 0,0.9 0.8,1.9 1.8,2.2 2.2,0.9 3.2,2.3 3.2,5 0,1.6 0.8,2.5 2.4,2.9 1.7,0.4 2.7,1.5 3.1,3.6 0.4,1.6 0.4,3.2 0.1,3.6 -1.6,1.5 -19.2,-22 -18,-23.9 0.3,-0.5 0.1,-0.9 -0.5,-0.9 -0.5,0 -1.5,-1.6 -2.1,-3.5 -0.6,-1.9 -1.6,-3.5 -2.1,-3.5 -0.5,0 -0.6,0.7 0,1.8 0.5,0.9 1.5,3.1 2.2,4.7 1.3,3.1 9.2,15.5 11.9,18.9 3.3,4.1 12.7,13.3 17,16.6 2.5,1.9 5,3.9 5.7,4.5 3.5,2.9 7,5.2 10.1,6.5 4.8,2.1 1.3,3.7 -5.3,2.4 z m -42.1,-59.8 c -0.3,-1.4 -1,-2.6 -1.5,-2.6 -0.6,0 -0.5,0.9 0.1,2 0.6,1.1 0.8,2 0.5,2 -0.4,0 -0.3,0.5 0,1.1 1.1,1.7 1.6,0.3 0.9,-2.5 z m -0.4,-4.8 c 0,-1.7 -1.8,-4.4 -2.4,-3.7 -0.8,0.7 0.5,4.9 1.5,4.9 0.5,0 0.9,-0.6 0.9,-1.2 z"
       id="path16" />
    <path
       d="m 869,287.1 c 0,-0.6 1.3,-1.1 3,-1.1 5.1,0 13,-2.1 13,-3.5 0,-0.7 1.1,-1.6 2.5,-1.9 2.7,-0.7 3.4,-2.6 1,-2.6 -0.8,0 -1.5,-0.4 -1.5,-1 0,-0.5 -0.6,-1 -1.3,-1 -0.8,0 -1.9,-1.1 -2.6,-2.4 -0.8,-1.4 -2.9,-2.8 -5.2,-3.5 -3.2,-1 -3.9,-1.6 -3.9,-3.6 0,-2 -0.5,-2.5 -2.6,-2.5 -1.9,0 -2.8,-0.7 -3.5,-3 -0.6,-1.6 -1.7,-3 -2.5,-3 -0.8,0 -1.4,-1 -1.4,-2.5 0,-1.8 -0.7,-2.6 -2.5,-3.1 -1.5,-0.4 -2.5,-1.3 -2.5,-2.4 0,-0.9 -1.1,-2.9 -2.5,-4.4 -1.4,-1.5 -2.5,-3.1 -2.5,-3.7 0,-0.5 -0.4,-0.9 -0.8,-0.9 -0.8,0 -3.9,-7 -6.1,-13.9 -0.6,-1.9 -1.1,-5.3 -1.1,-7.7 0,-2.4 -0.6,-4.9 -1.5,-5.8 -1.1,-1 -1.5,-3.6 -1.5,-8.5 0,-5.4 -0.3,-7.1 -1.4,-7.1 -0.8,0 -2.4,-1.1 -3.7,-2.5 -1.3,-1.3 -3,-2.5 -3.7,-2.5 -2.5,0 -11.2,-3.2 -11.2,-4.1 0,-0.5 -1.3,-0.9 -2.9,-0.9 -2.9,0 -2.9,0 -3.6,7.5 -0.6,6.5 -1,7.5 -2.6,7.5 -1.8,0 -1.9,-0.5 -1.3,-5.7 0.4,-3.2 0.7,-6.5 0.8,-7.3 0.4,-3.5 1.8,-4.2 7.2,-3.8 3,0.3 5.4,0.1 5.4,-0.4 0,-0.4 -0.8,-0.9 -1.7,-1 -1,0 -2.2,-0.2 -2.8,-0.3 -0.5,-0.2 -1.8,-0.3 -2.7,-0.4 -1,0 -1.8,-0.8 -1.8,-1.6 0,-3.3 14.9,-0.7 25,4.5 3.5,1.8 3.5,1.8 9.2,-1.1 3.2,-1.6 6.2,-2.9 6.8,-2.9 0.6,0 2.3,-1.1 3.8,-2.5 1.5,-1.4 3.8,-2.5 5.3,-2.5 1.8,0 2.9,-0.8 3.7,-2.5 0.6,-1.4 1.8,-2.5 2.7,-2.5 0.8,0 1.5,-0.4 1.5,-1 0,-1.1 3.3,-1.4 4.3,-0.4 0.9,0.9 -0.4,3.5 -1.4,2.8 -0.5,-0.3 -0.9,-0.1 -0.9,0.5 0,1.5 -10.8,8.5 -21.3,13.6 l -9.7,4.8 -4.5,-1.7 c -2.5,-1 -4.5,-2.3 -4.5,-2.8 0,-0.6 -0.3,-0.8 -0.7,-0.5 -0.3,0.4 -1.2,0.2 -2,-0.4 -0.9,-0.8 -1.3,-0.8 -1.3,-0.1 0,0.6 2.5,2.2 5.5,3.6 5.8,2.8 5.4,2.1 6.9,12.6 0.3,1.9 0.8,4.9 1.1,6.5 0.3,1.7 0.7,4.4 1,6.2 0.9,5.1 2.7,5.3 2,0.2 -0.4,-2.4 -0.8,-4.7 -1.1,-5 -1.3,-2.2 -2.3,-17.9 -1.1,-17.8 0.4,0 1.9,-0.7 3.3,-1.5 1.3,-0.9 2.4,-1.4 2.4,-1.1 0,0.4 0.7,-0.1 1.6,-0.9 0.8,-0.9 2,-1.4 2.5,-1.1 0.5,0.4 0.9,0.2 0.9,-0.3 0,-0.6 1.7,-1.7 3.8,-2.6 4.6,-2 10,-5.2 11.8,-7.1 0.7,-0.7 2.7,-1.9 4.4,-2.7 1.6,-0.7 3,-1.9 3,-2.6 0,-0.7 0.5,-1 1.1,-0.6 0.6,0.3 1.5,0 2,-0.7 0.6,-1 0.9,-0.7 0.9,1.2 0,2.1 -0.6,2.8 -2.8,3.2 -1.6,0.3 -3.4,1.7 -4.2,3.1 -0.8,1.6 -2.2,2.6 -3.5,2.6 -1.4,0 -2.6,1 -3.3,2.5 -0.7,1.4 -2,2.5 -3.1,2.5 -1.1,0 -2.1,0.4 -2.3,0.9 -0.5,1.3 -10.4,6.1 -12.7,6.1 -4.2,0 -4.1,7 0.5,21.9 0.8,2.5 1.4,5.5 1.4,6.8 0,1.3 0.4,2.3 0.9,2.3 0.5,0 1.5,1.6 2.2,3.5 1.2,3.1 3.9,5 3.9,2.6 0,-0.5 1.4,-1.1 3,-1.4 1.8,-0.4 3,-1.3 3,-2.2 0,-0.9 0.9,-1.5 2.5,-1.5 1.8,0 2.5,-0.5 2.5,-2 0,-1.4 0.7,-2 2.4,-2 1.5,0 2.6,-0.7 2.9,-2 0.4,-1.5 1.4,-2 3.6,-2 2.6,0 3.1,-0.4 3.1,-2.4 0,-1.9 0.7,-2.6 3,-3.1 2.1,-0.5 3,-1.3 3,-2.6 0,-2.9 3.1,-5.9 6.1,-5.9 2.3,0 2.8,-0.5 3.3,-3.5 0.6,-2.9 1.1,-3.5 3.1,-3.5 2.1,0 2.5,-0.5 2.5,-3 0,-2 0.6,-3.3 1.8,-3.7 2.6,-1 4.2,-3 4.2,-5.2 0,-1.2 0.5,-2.1 1,-2.1 0.6,0 1,-0.7 1,-1.5 0,-0.8 0.5,-1.5 1,-1.5 0.6,0 1,-0.7 1,-1.5 0,-0.8 0.7,-1.5 1.5,-1.5 0.9,0 1.5,-0.9 1.5,-2.5 0,-1.4 0.5,-2.5 1,-2.5 0.6,0 1,-0.9 1,-2 0,-1.9 0.1,-1.9 2,-0.2 1.9,1.5 1.9,1.8 0.4,2.9 -0.9,0.6 -1.3,1.6 -0.9,2.2 0.3,0.6 0,1.1 -0.8,1.1 -1.6,0 -3,2.7 -2.2,4 0.3,0.4 -0.2,1.1 -1.1,1.4 -0.8,0.3 -1.2,1 -0.9,1.6 0.3,0.6 -0.1,1.3 -0.9,1.6 -0.9,0.3 -1.3,1 -1,1.5 0.3,0.5 -0.1,0.9 -0.8,0.9 -1.2,0 -4.8,4.8 -4.5,6 0.5,1.9 -22.7,25 -31.8,31.8 -4.7,3.4 -13.8,9.2 -14.5,9.2 -0.6,0 -1,0.8 -1,1.8 0,1.4 0.2,1.5 1,0.2 0.5,-0.8 1,-1 1,-0.5 0,0.6 0.3,0.6 0.8,-0.1 0.4,-0.6 3.9,-3.1 7.7,-5.7 3.9,-2.5 8,-5.5 9.2,-6.6 1.2,-1.2 2.5,-2.1 2.9,-2.1 0.4,0 6.4,-5.8 13.3,-12.8 14.4,-14.7 17.3,-17.9 15.1,-16.8 -0.9,0.4 -0.8,0.2 0.3,-0.7 0.9,-0.8 1.7,-1.9 1.7,-2.6 0,-0.6 0.5,-1.1 1.1,-1.1 0.5,0 0.7,-0.4 0.4,-1 -0.3,-0.5 0.1,-1 1,-1 0.9,0 1.4,-0.4 1.1,-0.9 -0.3,-0.4 0.3,-1.6 1.4,-2.6 1.1,-1 1.7,-2.2 1.4,-2.6 -0.3,-0.5 0.2,-1.6 1.1,-2.5 1.3,-1.4 2.1,-1.5 4.2,-0.5 1.4,0.6 2.3,1.5 1.9,1.8 -0.3,0.3 -0.1,1.2 0.5,2 0.9,1 0.4,1.3 -2.6,1.3 -4.1,0 -6.4,2 -6.5,5.7 0,1.3 -0.8,2.4 -2,2.8 -1.3,0.4 -2,1.5 -2,3.1 0,1.5 -0.6,2.4 -1.5,2.4 -0.9,0 -1.8,0.7 -2.1,1.5 -0.4,0.8 -1.5,1.5 -2.5,1.5 -1.5,0 -1.9,0.7 -1.9,3.5 0,1.9 -0.4,3.5 -1,3.5 -0.5,0 -1,0.7 -1,1.5 0,1 -1,1.5 -3,1.5 -1.8,0 -3,0.5 -3,1.3 0,1.4 -3.5,4.7 -5,4.7 -0.6,0 -1,1.1 -1,2.5 0,1.6 -0.6,2.5 -1.5,2.5 -0.8,0 -1.5,0.7 -1.5,1.5 0,0.8 -0.9,1.5 -2,1.5 -1.1,0 -2,0.5 -2,1.1 0,1.7 -2.7,3.9 -4.9,3.9 -1.2,0 -2.1,0.5 -2.1,1 0,0.6 -1.1,1 -2.5,1 -2,0 -2.5,0.5 -2.5,2.5 0,1.6 -0.6,2.5 -1.5,2.5 -0.8,0 -1.5,0.5 -1.5,1 0,0.6 -0.7,1 -1.5,1 -0.8,0 -1.5,0.4 -1.5,0.8 0,0.5 -1.1,1.4 -2.5,2 -3,1.4 -3.2,3.3 -0.5,5.2 1.1,0.8 2,2.3 2,3.3 0,1.8 2.2,4.7 3.5,4.7 0.3,0 1.5,0.9 2.7,2 1.2,1.1 2.7,2 3.4,2 0.6,0 1.4,0.7 1.8,1.5 0.4,1 -0.1,1.5 -1.7,1.6 -5.2,0.3 -4.9,0.5 -13.8,-10.8 -6.3,-8 -6.4,-8.1 -4.2,-10.5 1.8,-2.1 1.8,-2.1 -0.3,-1 -1.5,0.8 -2.4,0.8 -3.2,0 -0.7,-0.7 -1.2,-0.9 -1.2,-0.5 0,1 4.9,9.6 6.8,11.9 4,4.9 9.9,11.3 12.1,13.2 1.3,1.2 4.3,3.8 6.5,5.8 2.3,2.1 4.7,3.8 5.4,3.8 0.6,0 1.2,0.5 1.2,1 0,0.6 0.7,1 1.5,1 0.8,0 1.5,0.5 1.5,1 0,0.6 0.6,1 1.3,1 0.8,0 2.4,1.1 3.7,2.5 l 2.3,2.5 -3.6,1.5 c -7.5,3.1 -25.7,6.4 -25.7,4.6 z m -14.5,-55 c -0.8,-1.7 -1.3,-3.1 -1,-3.1 0.3,0 0.1,-0.9 -0.5,-2 -1.6,-3.1 -3,-2.4 -1.5,0.8 0.8,1.5 1.9,4 2.5,5.6 0.6,1.6 1.3,2.6 1.6,2.3 0.3,-0.3 -0.2,-1.9 -1.1,-3.6 z M 832,187.3 c 0,-0.9 -0.3,-1.3 -0.6,-1 -0.4,0.3 -1.5,0.2 -2.5,-0.4 -1.1,-0.5 -1.9,-0.6 -1.9,-0.2 0,0.7 0.9,1.3 4.8,3.2 0.1,0 0.2,-0.6 0.2,-1.6 z"
       id="path18" />
    <path
       d="m 862.8,284.3 c -1,-0.2 -1.8,-0.9 -1.8,-1.4 0,-0.6 -0.4,-0.8 -0.8,-0.5 -0.5,0.3 -2,-0.5 -3.4,-1.7 -1.5,-1.2 -3.9,-3.1 -5.4,-4.2 -8.4,-6.2 -14,-11.3 -13.1,-12.1 1,-1 6.8,0.7 7.4,2.2 0.3,0.8 0.9,1.4 1.5,1.4 1.5,0 3.8,2.7 3.8,4.4 0,1 0.9,1.6 2.5,1.6 1.5,0 2.5,0.6 2.5,1.4 0,0.7 1.2,1.6 2.8,1.9 3.2,0.7 7.2,4.1 7.2,6.2 0,1.5 -0.2,1.6 -3.2,0.8 z"
       id="path20" />
    <path
       d="m 895.8,276.7 c -2.1,-1.2 -4.7,-3 -5.8,-3.9 -1.1,-1 -2.4,-1.8 -2.8,-1.8 -1.4,0 -10.4,-9 -9.1,-9.1 2,-0.1 6.2,-0.9 7.7,-1.4 2.2,-0.8 1.2,-2.2 -1.3,-1.7 -2,0.3 -2.5,0 -2.5,-1.6 0,-1.4 0.9,-2.1 3.3,-2.6 1.7,-0.3 5.9,-1.7 9.2,-3 3.3,-1.3 7.5,-3 9.3,-3.6 1.7,-0.7 3.2,-1.9 3.2,-2.6 0,-0.8 0.6,-1.4 1.3,-1.4 0.7,0 1.8,-0.9 2.5,-2 0.8,-1.4 2.3,-2 4.9,-2 h 3.6 l -2.4,2.6 c -2.5,2.7 -9.2,7 -18.2,11.6 -2.8,1.5 -4.9,2.7 -4.5,2.7 1.2,0.1 11.2,-4 11.8,-4.8 0.3,-0.4 2.3,-1.8 4.5,-3.1 2.2,-1.3 4.2,-2.6 4.5,-2.9 0.3,-0.4 1.3,-1.2 2.3,-2 1.5,-1.2 1.7,-1.1 1.7,1.8 0,2.4 -0.4,3.1 -2,3.1 -1.1,0 -2,0.7 -2,1.5 0,0.8 -0.5,1.5 -1.1,1.5 -0.6,0 -1.7,0.7 -2.5,1.5 -0.9,0.8 -2.4,1.5 -3.5,1.5 -1.1,0 -2.2,0.6 -2.5,1.4 -0.9,2.4 -14.8,6.9 -19.4,6.3 -2.3,-0.3 -3.8,-0.1 -3.4,0.4 0.3,0.5 1.2,0.9 2,0.9 0.8,0 1.4,0.5 1.4,1 0,0.6 0.7,1 1.5,1 0.7,0 1.8,0.6 2.2,1.3 0.4,0.6 2.5,2.1 4.7,3.2 2.1,1.1 4.1,2.5 4.3,3.2 1.1,3 8.3,0.6 8.3,-2.7 0,-1.4 0.7,-2 2.4,-2 3.2,0 10.6,-7.4 10.6,-10.6 0,-1.7 0.6,-2.4 2,-2.4 1.5,0 2,-0.7 2,-2.5 0,-1.4 0.4,-2.5 0.9,-2.5 0.5,0 1.2,-1.1 1.5,-2.5 0.4,-1.4 1.1,-2.5 1.6,-2.5 0.6,0 1,-0.9 1,-1.9 0,-1.1 0.6,-2.6 1.4,-3.3 1.4,-1.4 2.7,-7.8 1.6,-7.8 -1.1,0 -3,2.4 -3,3.8 0,2.3 -2.8,4.4 -5.5,4 l -2.5,-0.3 2.6,-3 c 4.6,-5.3 11.5,-16.7 11.8,-19.7 0.1,-0.4 0.6,-1.2 1.3,-1.9 3.3,-3.3 2.6,10.8 -1.1,21.1 -0.9,2.5 -1.8,5.2 -2,6 -0.5,1.9 -5.4,11.3 -6.4,12 -0.4,0.3 -2.6,3.1 -5,6.3 -4.2,5.6 -16.8,16 -20.7,17 -1.1,0.3 -3.6,-0.4 -5.7,-1.6 z M 892,258 c 2.4,-1.5 0.7,-1.8 -2,-0.3 -1.4,0.7 -1.8,1.3 -1,1.3 0.8,0 2.2,-0.4 3,-1 z"
       id="path22" />
    <path
       d="m 920.5,235.1 c 0.4,-3.2 1.4,-5.3 3.5,-7.1 1.7,-1.5 3,-3.1 3,-3.7 0,-1.7 5,-12.4 6.5,-13.9 2.2,-2.2 3.8,-1.8 2.5,0.7 -0.7,1.1 -0.9,2.3 -0.6,2.6 0.7,0.7 -4,11 -5.9,12.9 -0.8,0.8 -1.5,2.1 -1.5,2.7 0,0.7 -1.9,3.2 -4.1,5.7 l -4.1,4.5 z"
       id="path24" />
    <path
       d="m 932.8,196 c -2,-6.7 -2.2,-9.6 -0.8,-10.5 0.6,-0.3 1,0.1 1,0.9 0,0.9 0.5,1.6 1.1,1.6 0.5,0 0.8,0.4 0.4,0.9 -0.3,0.5 -0.1,1.2 0.5,1.6 0.6,0.4 0.8,1 0.5,1.5 -0.3,0.5 -0.1,1.1 0.5,1.5 0.6,0.4 0.8,1.1 0.5,1.6 -0.4,0.5 -0.3,1.5 0.1,2.1 1.4,2.2 1.1,4.8 -0.5,4.8 -1.1,0 -2.2,-1.9 -3.3,-6 z"
       id="path26" />
    <path
       d="m 799,186.3 c 0,-2.9 9.8,-18.2 13.5,-21.1 1.5,-1.2 4.5,-2.7 6.6,-3.4 2.2,-0.6 3.9,-1.5 3.9,-2.1 0,-0.5 -0.7,-0.7 -1.5,-0.3 -0.8,0.3 -1.5,0.2 -1.5,-0.2 0,-1.1 3.2,-3.6 8.4,-6.7 3.7,-2.2 4.6,-2.4 4.6,-1.1 0,0.9 -0.4,1.6 -1,1.6 -1.1,0 -8,6.2 -8,7.2 0,0.4 0.7,0.5 1.5,0.2 1,-0.4 1.5,0 1.5,1.4 0,1.9 -3.7,3.4 -10.5,4.4 -1.2,0.2 -2.1,1.2 -2.3,2.6 -0.2,1.3 -1.2,2.8 -2.3,3.5 -1,0.6 -1.9,1.7 -1.9,2.3 0,0.7 -0.9,1.4 -2,1.7 -1.4,0.3 -2,1.4 -2,3.1 0,2.4 0.4,2.6 4,2.6 5.1,0 5.2,1.6 0.3,2.3 -4.7,0.7 -7.3,1.3 -9.5,2.2 -1,0.4 -1.8,0.3 -1.8,-0.2 z"
       id="path28" />
    <path
       d="m 885.5,170 c 0.4,-0.6 1.1,-0.8 1.6,-0.4 0.5,0.3 0.8,0 0.7,-0.8 -0.2,-0.7 0.3,-1.2 1,-1 0.8,0.1 1.1,-0.2 0.8,-0.7 -0.4,-0.5 0.5,-1.8 1.9,-3 1.5,-1.1 2.5,-2.3 2.5,-2.7 -0.2,-0.7 2,-2.4 3.3,-2.4 0.4,0 0.7,1.1 0.7,2.5 0,2 -0.5,2.5 -2.5,2.5 -1.5,0 -2.5,0.6 -2.5,1.5 0,2.4 -3.3,5.5 -5.8,5.5 -1.3,0 -2,-0.4 -1.7,-1 z"
       id="path30" />
    <path
       d="m 870,168.5 c 0,-0.8 -1.4,-1.7 -3.5,-2.1 -1.9,-0.3 -3.5,-1 -3.5,-1.5 0,-0.4 -1.8,-1.4 -4,-2 -2.2,-0.7 -4,-1.8 -4,-2.6 0,-1.1 0.5,-1.1 2,-0.3 1.1,0.6 2,0.8 2,0.4 0,-0.3 0.7,-0.1 1.5,0.6 0.8,0.7 1.5,0.9 1.5,0.5 0,-0.4 0.7,-0.2 1.5,0.5 0.8,0.6 1.9,0.9 2.4,0.6 0.5,-0.4 1.4,0.2 2,1.1 0.9,1.7 1,1.7 1.7,-0.1 0.8,-2.2 -1.3,-3.8 -4,-3 -1.4,0.5 -1.6,0.3 -1.1,-0.7 0.5,-0.8 0.5,-1.1 0,-0.7 -0.4,0.4 -1.4,0.3 -2.1,-0.3 -0.7,-0.5 -2.5,-1.1 -4,-1.2 -1.5,-0.1 -2.9,-0.8 -3.2,-1.5 -0.9,-2.7 11.4,-0.4 13.1,2.5 0.4,0.7 1.9,1.3 3.2,1.3 1.6,0 2.5,0.6 2.5,1.5 0,0.9 0.9,1.5 2.5,1.5 2,0 2.5,0.5 2.5,2.5 0,1.4 -0.4,2.5 -1,2.5 -0.5,0 -1,-0.5 -1,-1.2 0,-0.6 -0.3,-0.9 -0.6,-0.5 -0.4,0.3 -1.3,0 -2.1,-0.8 -1.7,-1.7 -4.3,-2 -4.3,-0.5 0,0.9 1.5,1.4 2.3,0.8 0.4,-0.4 3.7,2.9 3.7,3.6 0,0.3 -1.3,0.6 -3,0.6 -2,0 -3,-0.5 -3,-1.5 z"
       id="path32" />
    <path
       d="m 883,166.8 c 0,-2.8 3.2,-5.8 6,-5.8 1.3,0 2,-0.7 2,-2 0,-1.1 0.7,-2 1.5,-2 2.4,0 1.7,2.9 -1,4.2 -1.4,0.6 -2.4,1.7 -2.1,2.4 0.3,0.8 -0.1,1.1 -1,0.7 -1.1,-0.4 -1.5,0 -1.2,1.3 0.2,1 -0.1,1.9 -0.7,1.9 -0.5,0 -1.6,0.4 -2.2,0.8 -0.9,0.6 -1.3,0.1 -1.3,-1.5 z"
       id="path34" />
    <path
       d="m 843,147 c 0,-1.3 3.1,-2.8 5.3,-2.5 0.9,0.2 1.7,-0.1 1.7,-0.6 0,-0.5 1.1,-0.7 2.4,-0.5 1.4,0.2 2.7,-0.1 2.9,-0.7 0.3,-0.9 0.8,-0.9 1.9,0.1 1.3,1 1.7,1 2.1,0 0.3,-0.7 0.6,-0.4 0.6,0.8 0.1,1.8 -0.8,2.2 -6.3,3.2 -7.7,1.5 -10.6,1.5 -10.6,0.2 z"
       id="path36" />
    <path
       d="m 874.8,146.3 c -2.1,-0.3 -2.8,-1 -2.7,-2.6 0,-1.2 0.3,-1.6 0.6,-0.9 0.4,1 0.8,1 2.1,0 1.1,-1 1.6,-1 1.9,-0.1 0.2,0.6 1.5,0.9 2.9,0.7 1.3,-0.2 2.4,0 2.4,0.6 0,0.5 0.7,1 1.6,1 0.8,0 1.2,0.5 0.9,1 -0.6,1 -4.4,1.1 -9.7,0.3 z"
       id="path38" />
  </g>
  <g
     fill="#6d6d6d"
     id="g64"
     transform="matrix(0.14672828,0,0,0.14662572,-14.799554,-14.779873)">
    <path
       d="m 336,583.5 c 0,-3.8 1.5,-4.5 3.6,-1.7 1.3,1.6 1.3,1.6 1.4,0 0,-1 0.7,-1.8 1.5,-1.8 1,0 1.5,1.1 1.5,3.5 0,3.4 -0.1,3.5 -4,3.5 -3.9,0 -4,-0.1 -4,-3.5 z"
       id="path42" />
    <path
       d="m 327.5,573.5 c -15,-21 -33.8,-36.3 -56.6,-46 -7.3,-3.2 -21.5,-7.7 -28,-9 -1.3,-0.3 -3.7,-0.8 -5.4,-1.1 -15,-3 -37.4,-3.4 -52.4,-0.8 -29,4.9 -54.6,17.3 -73.6,35.6 l -8.1,7.7 0.4,-3.7 c 1.3,-12 37.3,-34.6 67.2,-42.2 21.3,-5.4 51.7,-6 73,-1.5 1.4,0.3 3.3,0.6 4.2,0.6 1,0 2,0.5 2.3,1 0.4,0.5 1.1,0.7 1.6,0.3 0.5,-0.3 1.6,0 2.4,0.6 0.8,0.7 1.5,0.9 1.5,0.5 0,-0.4 0.7,-0.2 1.5,0.5 0.8,0.7 1.5,0.9 1.5,0.5 0,-0.4 0.7,-0.2 1.5,0.5 0.8,0.7 1.5,0.9 1.5,0.5 0,-0.4 0.7,-0.2 1.5,0.5 0.8,0.7 1.5,0.9 1.5,0.5 0,-0.4 0.7,-0.2 1.5,0.5 0.8,0.7 1.5,0.9 1.5,0.6 0,-0.4 1.2,-0.1 2.8,0.7 1.5,0.8 5.6,2.8 9.2,4.6 3.6,1.7 8.5,4.3 11,5.7 10.8,6.3 28.7,21.5 27.5,23.4 -0.3,0.5 -0.1,1.1 0.5,1.5 0.5,0.3 1.1,2.1 1.1,3.8 l 0.2,3.2 0.6,-3.4 0.6,-3.5 2.9,3.4 c 1.6,2 2.4,3.6 1.7,3.8 -1.4,0.5 -1.5,6.2 -0.1,6.2 0.6,0 1,-1.1 1,-2.5 0,-3.4 1.1,-3.1 3.8,1 1.7,2.7 1.9,3.5 0.8,3.5 -0.8,0 -1.6,1.2 -1.8,2.7 l -0.3,2.6 z"
       id="path44" />
    <path
       d="m 340.7,552 c -0.3,-1.1 -0.1,-2 0.4,-2 0.5,0 1.2,-1.8 1.5,-4 0.6,-3.4 1,-4 3.2,-4 2.2,0 2.4,0.3 1.8,3.3 -0.4,1.7 -1.1,3.4 -1.6,3.5 -0.6,0.2 -1,1.5 -1,2.8 0,3 -3.5,3.4 -4.3,0.4 z"
       id="path46" />
    <path
       d="m 344,535.1 c 0,-1.6 -0.4,-4.1 -1,-5.5 -0.7,-1.8 -0.6,-2.6 0.1,-2.6 0.7,0 1,-1.4 0.7,-3.5 -0.2,-1.9 0,-3.5 0.4,-3.5 0.4,0 0.8,-0.7 0.8,-1.5 0,-0.8 0.7,-1.5 1.6,-1.5 1.4,0 1.5,0.9 0.9,6.6 -0.5,4.8 -0.3,6.9 0.5,7.4 2,1.2 0.2,7 -2.1,7 -1.4,0 -1.9,-0.7 -1.9,-2.9 z"
       id="path48" />
    <path
       d="m 345.7,510 c -0.3,-1.1 -0.1,-2 0.5,-2 0.6,0 0.8,-1.1 0.6,-2.5 -0.3,-1.4 -0.1,-2.5 0.5,-2.5 0.5,0 0.7,-1.1 0.5,-2.5 -0.3,-1.4 -0.1,-2.5 0.3,-2.5 0.5,0 0.9,-0.7 0.9,-1.5 0,-0.8 0.7,-1.5 1.5,-1.5 0.8,0 1.5,0.9 1.5,1.9 0,1.1 0.5,2.1 1.1,2.3 1.5,0.5 -0.6,10.9 -2.4,12 -2.2,1.4 -4.5,0.8 -5,-1.2 z"
       id="path50" />
    <path
       d="m 351.8,484.2 c -0.3,-1 0.2,-2.4 0.9,-3.1 0.8,-0.8 1.3,-2.4 1,-3.7 -0.2,-1.3 0,-2.4 0.5,-2.4 0.6,0 0.8,-0.7 0.4,-1.5 -0.3,-0.8 -0.1,-1.5 0.5,-1.5 0.6,0 0.9,-0.5 0.7,-1.2 -0.4,-1.1 2.5,-4.8 3.7,-4.8 0.9,0 0.5,5.7 -0.7,9 -0.8,2.4 -0.8,3.5 -0.1,3.7 0.8,0.3 0.8,1.4 0,3.8 -0.8,2.9 -1.5,3.5 -3.8,3.5 -1.7,0 -2.8,-0.6 -3.1,-1.8 z"
       id="path52" />
    <path
       d="m 525.5,466.4 c -1.1,-0.8 -1.9,-2.2 -1.7,-3 0.2,-0.8 -0.1,-1.4 -0.5,-1.4 -0.5,0 -1,-1 -1,-2.2 -0.1,-1.3 -0.7,-2.4 -1.3,-2.6 -0.5,-0.2 -0.8,-0.8 -0.4,-1.3 0.3,-0.5 0,-0.9 -0.5,-0.9 -0.6,0 -1,-0.3 -0.9,-0.7 0.3,-1.6 -1.5,-6.3 -2.4,-6.3 -0.5,0 -0.6,-0.4 -0.3,-1 0.3,-0.5 0.1,-1 -0.5,-1 -0.6,0 -0.8,-0.4 -0.5,-1 0.3,-0.5 0.1,-1 -0.5,-1 -0.6,0 -0.8,-0.4 -0.5,-1 0.3,-0.5 0.1,-1 -0.5,-1 -0.6,0 -0.8,-0.4 -0.5,-1 0.3,-0.5 0.2,-1 -0.2,-1 -0.5,0 -1.5,-1.6 -2.2,-3.5 -0.7,-1.9 -1.6,-3.5 -2,-3.5 -0.5,0 -1.1,-0.9 -1.4,-2 -0.3,-1.3 0,-2 0.9,-2 0.8,0 1.4,-0.7 1.4,-1.6 0,-2.3 1.8,-1.3 4.1,2.4 l 2.1,3.2 h -2.1 c -1.2,0 -2.1,0.6 -2.1,1.5 0,0.8 0.9,1.5 2,1.5 3.5,0 6.4,4 11.5,16.2 3.8,9.1 5.2,11.5 6.2,10.6 0.7,-0.5 1,-1.4 0.7,-1.9 -0.3,-0.5 0.5,-0.9 1.6,-0.9 1.3,0 2.4,-0.8 2.7,-2 0.3,-1.1 1.4,-2 2.5,-2 1,0 1.6,-0.4 1.3,-1 -0.3,-0.5 0.3,-1 1.5,-1 1.2,0 1.8,-0.4 1.5,-1 -0.3,-0.5 0.3,-1 1.5,-1 1.2,0 1.9,-0.4 1.6,-0.9 -0.4,-0.5 0.8,-1.3 2.6,-1.6 4.5,-1 12.8,-5.3 12.8,-6.6 0,-0.6 0.9,-0.9 2,-0.6 1.2,0.3 2.3,-0.1 2.9,-1 0.5,-0.9 2.5,-1.6 5.1,-1.8 2.3,-0.1 4.5,-0.7 4.9,-1.2 0.3,-0.5 2.6,-0.9 5,-0.9 2.6,0 4.6,-0.4 4.8,-1.1 0.3,-0.9 1.9,-1 4.9,-0.6 3,0.4 4.4,0.2 4.4,-0.6 0,-1.7 13.9,-1.2 16.6,0.6 1.6,1 2.8,1.1 4.7,0.4 1.8,-0.7 2.8,-0.7 3.3,0 0.3,0.6 1.7,0.9 3,0.6 1.4,-0.2 3.1,0.3 4.4,1.5 1.1,1 2,1.5 2,1 0,-1.5 3.7,-0.7 6.4,1.3 2.4,1.8 3.7,6.5 1.9,6.5 -0.5,0 -3.5,-0.9 -6.8,-1.9 -3.3,-1 -10.2,-2.4 -15.2,-3.1 -6.6,-0.9 -9.3,-1.7 -9.3,-2.6 0,-0.8 -1.1,-1.4 -2.5,-1.4 -1.5,0 -2.5,0.6 -2.5,1.4 0,1 -1.9,1.6 -6.7,2.1 -18,1.9 -36.9,9.2 -52.3,20.3 -9.1,6.6 -13.4,7.7 -17.5,4.6 z"
       id="path54" />
    <path
       d="m 359.8,460.3 c -0.3,-1.6 2.3,-5.3 3.7,-5.3 0.3,0 0.5,1.6 0.5,3.5 0,2.8 -0.4,3.5 -1.9,3.5 -1.1,0 -2.1,-0.8 -2.3,-1.7 z"
       id="path56" />
    <path
       d="m 649.3,449.3 c -3.7,-1.9 -4.6,-5.3 -1.3,-5 1.1,0.1 2,0.5 2,1 0,0.4 0.5,0.5 1,0.2 0.6,-0.3 1,-0.1 1,0.5 0,0.6 0.5,0.8 1,0.5 0.6,-0.3 1,-0.1 1,0.5 0,0.6 0.3,0.9 0.8,0.7 0.4,-0.3 1.6,0.4 2.6,1.4 1.9,1.9 1.9,1.9 -1.5,1.8 -1.9,0 -4.9,-0.8 -6.6,-1.6 z"
       id="path58" />
    <path
       d="m 368,445.5 c 0,-3.3 0.2,-3.5 3.4,-3.5 h 3.3 l -1.6,3.5 c -2.2,4.7 -5.1,4.7 -5.1,0 z"
       id="path60" />
    <path
       d="m 500.8,420.8 -2.7,-3.3 2.5,-0.3 c 3.3,-0.4 3.6,-0.1 3.2,3.8 l -0.3,3.2 z"
       id="path62" />
  </g>
  <g
     fill="#ff6600"
     id="g68"
     transform="matrix(0.14672828,0,0,0.14662572,-14.799554,-14.779873)">
    <path
       d="m 588.5,1122.9 c -107.4,-6 -204.9,-41.7 -288,-105.4 -83.9,-64.4 -147,-155.4 -177.3,-255.6 -6.8,-22.4 -13.3,-50.4 -16.6,-71.7 l -0.3,-2.2 h 78.3 c 69,0 78.4,-0.2 78.4,-1.5 0,-0.8 0.7,-1.5 1.5,-1.5 1.2,0 1.5,8.8 1.7,66.2 0.3,65.7 0.3,66.3 2.5,70.3 2.4,4.6 5.4,7.5 10.3,10.1 3.3,1.8 7,1.9 70,1.9 63,0 66.7,-0.1 70,-1.9 4.9,-2.6 7.9,-5.5 10.3,-10.1 2.2,-4 2.2,-4.6 2.5,-70.2 0.2,-57.5 0.5,-66.3 1.7,-66.3 0.8,0 1.5,0.7 1.5,1.5 0,1.2 1.3,1.5 6,1.5 4.7,0 6,-0.3 6,-1.5 0,-0.8 0.7,-1.5 1.5,-1.5 1.3,0 1.5,8 1.5,66.3 0,64.4 0.1,66.3 2.1,70.7 2.5,5.6 4.4,7.7 9.4,10.4 4,2.1 4.4,2.1 71,2.1 63.5,0 67.2,-0.1 70.5,-1.9 4.9,-2.6 7.9,-5.5 10.3,-10.1 2.2,-4 2.2,-4.6 2.5,-70.7 0.2,-57.9 0.5,-66.8 1.7,-66.8 0.8,0 1.5,0.7 1.5,1.5 0,1.2 1.3,1.5 6,1.5 4.7,0 6,-0.3 6,-1.5 0,-0.8 0.7,-1.5 1.5,-1.5 1.3,0 1.5,8.8 1.7,68.3 l 0.3,68.4 2.8,4 c 1.5,2.2 4.6,5 7,6.4 l 4.2,2.4 58.5,0.3 c 42,0.3 60,0 63.9,-0.8 7,-1.6 13.2,-7.5 14.9,-14.2 0.9,-3.3 1.2,-23.5 1.2,-69.7 0,-57.2 0.2,-65.1 1.5,-65.1 0.8,0 1.5,0.7 1.5,1.5 0,1.2 1.3,1.5 6,1.5 4.7,0 6,-0.3 6,-1.5 0,-0.8 0.7,-1.5 1.5,-1.5 1.3,0 1.5,8.1 1.5,67 0,58.3 0.2,67.6 1.5,70.8 2.1,4.9 5.2,8.1 10,10.3 3.7,1.7 7.8,1.9 64.5,1.9 56.7,0 60.8,-0.2 64.5,-1.9 4.8,-2.2 7.9,-5.4 10,-10.3 1.3,-3.2 1.5,-12.5 1.5,-70.8 0,-58.9 0.2,-67 1.5,-67 0.8,0 1.5,0.7 1.5,1.5 0,1.3 9.4,1.5 78.9,1.5 h 78.8 l -0.3,2.2 c -13,84.2 -47.9,165.4 -99.9,233.3 -64.4,83.9 -155.4,147 -255.6,177.3 -42.8,13 -80.9,19.6 -128.9,22.2 -20.2,1.1 -23.7,1.1 -44.5,-0.1 z"
       id="path66" />
  </g>
  <g
     fill="#7f7f7f"
     id="g74"
     transform="matrix(0.14672828,0,0,0.14662572,-14.799554,-14.779873)">
    <path
       d="m 342.7,607.3 c -0.2,-0.4 -1.6,-4.4 -3.1,-8.8 -5.9,-17.8 -19.7,-38 -35.2,-51.5 -4.6,-4 -17,-13 -20.6,-15 -1.8,-1 -4.8,-2.7 -6.5,-3.6 -4.8,-2.6 -4.4,-4.9 0.4,-2.8 2.1,0.9 5.7,2.3 8,3.2 2.4,0.8 4.1,1.8 3.8,2.2 -0.3,0.5 0.8,1.1 2.5,1.5 1.7,0.4 2.8,1.1 2.4,1.6 -0.3,0.5 0.4,0.9 1.5,0.9 1.2,0 2.1,0.5 2.1,1 0,0.6 0.7,1 1.5,1 0.9,0 1.8,0.7 2.1,1.5 0.4,0.8 1.3,1.5 2,1.5 0.8,0 1.7,0.7 2,1.5 0.4,0.8 1.1,1.5 1.8,1.5 1.8,0 17.9,17 22.8,24 6.4,9.2 9.9,15.6 9.1,16.3 -0.3,0.4 -0.1,0.7 0.5,0.7 0.9,0 1.2,-4 1.2,-13.9 0,-63 17.6,-122.5 46.7,-158.4 3.1,-3.7 6.2,-6.7 6.9,-6.7 0.8,0 1.4,-0.6 1.4,-1.4 0,-2.2 4,-4.6 7.7,-4.6 1.8,0 3.3,0.3 3.3,0.7 0,0.3 -3.1,3.6 -6.8,7.3 -8.5,8.3 -15.7,17.9 -21.9,28.8 -2.5,4.6 -5.2,8.6 -6,8.9 -0.7,0.3 -1,0.9 -0.7,1.4 0.3,0.5 -1.2,5.1 -3.4,10.2 -2.1,5.1 -5.1,12.9 -6.6,17.5 -1.5,4.5 -3.2,8.2 -3.7,8.2 -0.6,0 -0.7,0.5 -0.4,1.1 0.8,1.2 -3.4,18.9 -4.5,18.9 -0.4,0 -0.5,1.1 -0.2,2.5 0.2,1.5 0,2.5 -0.7,2.5 -0.7,0 -0.9,0.5 -0.6,1 0.7,1.2 -2.6,26 -3.5,26 -0.3,0 -0.3,2.5 -0.2,5.5 0.3,3.7 0,5.5 -0.8,5.5 -0.6,0 -0.9,0.3 -0.7,0.8 0.3,0.4 0.6,14.4 0.8,31.2 l 0.4,30.5 -2.2,0.3 c -1.1,0.2 -2.3,0 -2.6,-0.5 z"
       id="path70" />
    <path
       d="m 524.8,463.6 c -1.3,-2.3 -2.8,-5.4 -3.2,-6.9 -0.4,-1.6 -1.1,-3.4 -1.6,-4 -0.5,-0.7 -3,-5.1 -5.4,-9.9 -7.4,-14.4 -13.5,-22.9 -24.4,-34.1 -19.9,-20.4 -43,-26.7 -65.8,-17.8 l -7.4,2.9 v -3.3 c 0,-3.1 0.2,-3.3 6.8,-5.4 3.7,-1.1 8,-2.1 9.4,-2.1 1.5,0 3,-0.4 3.3,-1 0.8,-1.2 11.9,-1.3 14.3,-0.1 0.9,0.5 4.6,1.4 8,2 6.3,1.2 13.4,3.9 14,5.3 0.2,0.5 1,0.8 1.8,0.8 2.9,0 12.9,7.3 20.3,14.9 7.3,7.3 18.1,21.7 18.1,24 0,0.6 0.4,1.1 0.8,1.1 0.9,0 5.7,9.1 5.4,10.3 -0.1,0.4 0.3,0.7 0.9,0.7 0.5,0 0.7,0.5 0.4,1 -0.3,0.6 0,1 0.7,1 0.9,0 0.9,0.3 -0.2,1 -1.3,0.8 -1.3,1 0.1,1 1.4,0 3.2,3.5 2.8,5.6 0,0.4 0.5,1.1 1.3,1.5 1,0.7 1,0.9 0.1,0.9 -0.7,0 -1.3,0.5 -1.3,1 0,0.6 0.6,1 1.4,1 0.8,0 1.6,0.7 2,1.5 0.3,0.8 0.1,1.5 -0.4,1.5 -0.6,0 -1,0.5 -1,1 0,0.6 0.6,1 1.4,1 0.8,0 1.7,0.9 2.1,2 0.6,1.8 1.3,1.4 7.8,-3.6 9,-6.9 28.7,-16.7 39.2,-19.4 18.7,-4.8 38.9,-4.8 56.6,0.1 8,2.2 28.5,11.6 31.2,14.4 0.9,0.9 1.7,3.2 1.7,5.1 v 3.5 l -4.6,-3.1 c -5.4,-3.8 -18.8,-10.6 -22.6,-11.5 -1.6,-0.4 -2.8,-1.1 -2.8,-1.7 0,-0.5 -0.4,-0.7 -0.9,-0.4 -0.5,0.4 -2.2,0.1 -3.8,-0.5 -1.5,-0.7 -3.2,-1.3 -3.8,-1.4 -0.5,-0.1 -1.4,-0.3 -2,-0.5 -0.5,-0.1 -2,-0.1 -3.2,0 -1.3,0.1 -2.3,-0.2 -2.3,-0.7 0,-0.5 -1.6,-0.7 -3.5,-0.5 -2,0.2 -3.5,0 -3.5,-0.6 0,-0.6 -2.2,-0.8 -5.9,-0.5 -3.3,0.3 -7.3,0.1 -9.1,-0.5 -2.5,-0.9 -3.2,-0.9 -3.7,0.4 -0.4,1.2 -1.5,1.4 -4.4,0.9 -2.6,-0.5 -3.9,-0.3 -3.9,0.4 0,0.7 -1,0.9 -2.5,0.5 -1.6,-0.4 -2.5,-0.2 -2.5,0.6 0,0.6 -0.5,0.8 -1,0.5 -1.5,-0.9 -16.5,4.1 -24.5,8.3 -7.1,3.7 -22.5,14 -22.5,15.1 0,0.3 -1.3,0.6 -2.9,0.7 -2.3,0.1 -3.3,-0.7 -5.3,-4 z"
       id="path72" />
  </g>
  <g
     fill="#8c8c8c"
     id="g88"
     transform="matrix(0.14672828,0,0,0.14662572,-14.799554,-14.779873)">
    <path
       d="m 342,603 c 0,-1.1 0.7,-2 1.5,-2 0.8,0 1.5,0.5 1.5,1 0,0.6 0.8,1 1.8,1.1 1.4,0 1.4,0.2 -0.3,0.9 -3.3,1.4 -4.5,1.1 -4.5,-1 z"
       id="path76" />
    <path
       d="m 693,489 c -7.7,-10 -15.5,-18.1 -22.5,-23.6 -4.1,-3.1 -7.5,-6.1 -7.5,-6.6 0,-0.5 -0.4,-0.7 -0.9,-0.3 -0.6,0.3 -1.5,-0.4 -2.1,-1.5 -0.6,-1.1 -1.5,-1.8 -2.1,-1.5 -0.5,0.4 -0.9,0.1 -0.9,-0.5 0,-0.6 -0.4,-0.8 -1,-0.5 -0.5,0.3 -1,0.2 -1,-0.3 0,-0.5 -1.6,-2 -3.5,-3.3 -1.9,-1.3 -3.5,-2.7 -3.5,-3.1 0,-2.1 10,0.5 12,3.1 0.3,0.4 1.6,1.1 3,1.7 5,2.2 15.1,10.7 24,20.1 9.3,9.9 10.4,11.7 9.8,17.4 l -0.3,3.3 z"
       id="path78" />
    <path
       d="m 709.3,482.5 c -0.7,-0.8 -1.3,-3.9 -1.3,-7 0,-5.4 0,-5.5 3,-5.5 h 3 v 7 c 0,6 -0.2,7 -1.7,7 -1,-0.1 -2.4,-0.7 -3,-1.5 z"
       id="path80" />
    <path
       d="m 708,465.6 c 0,-3.5 1,-5.6 2.6,-5.6 1,0 1.4,1.2 1.4,4 0,3.3 -0.3,4 -2,4 -1.4,0 -2,-0.7 -2,-2.4 z"
       id="path82" />
    <path
       d="m 710.1,458.1 c -1.1,-0.7 -1.2,-2.7 -0.7,-9.7 2.2,-29.9 9,-64.4 17.9,-91.4 7.4,-22.3 10.5,-27.7 10.9,-19.2 0.3,5.9 0.2,6 -4.7,20.2 -7.5,21.7 -13.1,47.3 -16.9,76.9 -0.9,6.7 -2,11.8 -2.8,12.3 -1,0.8 -1,1.1 0,1.5 0.6,0.2 1.2,2 1.2,3.8 0,6 -1.5,7.7 -4.9,5.6 z"
       id="path84" />
    <path
       d="m 383.1,418.8 c 2.5,-4.8 11.3,-14.9 17.1,-19.8 7.8,-6.5 17.6,-12.3 25.8,-15.1 9.4,-3.3 27.6,-3.3 37,0 7.8,2.7 20.3,9.8 19.5,11.1 -0.3,0.5 0.5,1.2 1.9,1.6 3.3,0.8 4.7,2.6 3.6,4.4 -0.7,1.1 -1.1,1.2 -2.4,0 -0.9,-0.7 -1.9,-1 -2.3,-0.6 -0.3,0.3 -1.3,-0.3 -2,-1.4 -0.8,-1.1 -1.9,-1.8 -2.4,-1.5 -0.5,0.4 -0.9,-0.1 -0.9,-1 0,-1.1 -0.5,-1.5 -1.4,-1.2 -0.8,0.3 -1.7,-0.1 -2,-1 -0.4,-0.9 -1.3,-1.3 -2.1,-0.9 -0.9,0.3 -1.8,-0.1 -2.2,-1 -0.3,-0.8 -1.2,-1.3 -1.9,-1 -0.8,0.3 -1.4,0 -1.4,-0.6 0,-0.6 -0.3,-0.9 -0.6,-0.5 -0.4,0.3 -1.3,-0.1 -2.1,-0.9 -0.9,-0.8 -2.3,-1.2 -3.4,-0.9 -1.1,0.4 -1.9,0.2 -1.9,-0.5 0,-0.7 -0.8,-0.9 -2,-0.5 -1.1,0.4 -2,0.2 -2,-0.4 0,-0.6 -1.2,-0.8 -3,-0.4 -2.3,0.4 -3.4,0.1 -4.4,-1.2 -0.9,-1.2 -1.5,-1.4 -2,-0.7 -0.5,0.8 -1.5,0.8 -3.2,0.2 -1.8,-0.7 -2.6,-0.6 -3,0.4 -0.3,0.8 -2.1,1.3 -5.1,1.2 -2.9,-0.1 -4.8,0.4 -5.1,1.2 -0.2,0.6 -0.8,1 -1.3,0.6 -1.3,-0.7 -7.9,1.8 -8,3.1 0,1.4 -15.1,11 -16.7,10.6 -1.8,-0.3 -4.3,1.9 -3.6,3.1 0.9,1.4 -1.5,3.6 -3.5,3.1 -1.1,-0.3 -2.4,0.5 -3.5,2.1 -1,1.6 -1.2,2.6 -0.5,2.6 0.6,0 0.9,0.6 0.6,1.3 -0.2,0.6 -1.3,1.1 -2.4,0.9 -1.3,-0.2 -2.9,0.8 -4.4,2.8 -2.8,3.5 -4.5,4 -2.8,0.8 z"
       id="path86" />
  </g>
  <g
     fill="#9f9f9f"
     id="g112"
     transform="matrix(0.14672828,0,0,0.14662572,-14.799554,-14.779873)">
    <path
       d="m 267,636 c 0,-1.4 4.6,-6 6,-6 1.4,0 1.3,4.3 -0.2,5.8 -1.5,1.5 -5.8,1.6 -5.8,0.2 z"
       id="path90" />
    <path
       d="m 425.2,635.8 c -1.5,-1.5 -1.6,-5.8 -0.2,-5.8 1.4,0 6,4.6 6,6 0,1.4 -4.3,1.3 -5.8,-0.2 z"
       id="path92" />
    <path
       d="m 631.2,551.3 c 3.5,-7.4 4.8,-8.1 4.8,-2.8 0,3.1 -0.3,3.5 -2.6,3.5 -1.4,0 -2.4,-0.3 -2.2,-0.7 z"
       id="path94" />
    <path
       d="m 784,547.5 c 0,-3.2 -0.2,-3.5 -3,-3.5 -2,0 -3,-0.5 -3,-1.5 0,-1 -1,-1.5 -3,-1.5 -2.3,0 -3,-0.4 -3,-2 0,-5.9 13.5,2.6 16.3,10.3 0.5,1.3 0.1,1.7 -1.8,1.7 -2.2,0 -2.5,-0.4 -2.5,-3.5 z"
       id="path96" />
    <path
       d="m 639,541.2 c 0,-0.7 1.7,-1.8 6.3,-4 0.4,-0.2 0.7,0.8 0.7,2.2 0,2.3 -0.4,2.6 -3.5,2.6 -1.9,0 -3.5,-0.4 -3.5,-0.8 z"
       id="path98" />
    <path
       d="m 706,510.8 c -0.8,-1.8 -3.8,-7.3 -6.7,-12.2 -2.9,-4.9 -5.3,-9.2 -5.3,-9.6 0,-0.5 -0.7,-1 -1.5,-1.4 -0.8,-0.3 -1.5,-1.5 -1.5,-2.6 0,-1.2 -0.5,-1.8 -1,-1.5 -0.6,0.3 -1.3,-0.2 -1.6,-1.2 -0.3,-1 -1,-2.6 -1.5,-3.5 -1.5,-2.9 -1.1,-4.2 0.7,-2.7 0.9,0.7 2.6,1.8 3.8,2.4 1.1,0.7 2,1.7 1.9,2.3 -0.2,0.7 0.3,1.2 1,1.2 1.3,0.1 5.9,6 10.1,13.3 1.6,2.6 3,4.7 3.1,4.5 0.1,-0.2 0.5,-11.1 0.9,-24.3 0.4,-13.2 0.8,-25.6 1,-27.5 0.5,-4.9 1.7,-14.9 2.1,-18.5 0.2,-1.6 1.3,-7.9 2.5,-14 1.1,-6 1.8,-11.6 1.5,-12.2 -0.2,-0.7 0.1,-1.3 0.6,-1.3 0.7,0 0.9,-1.1 0.7,-2.5 -0.3,-1.3 -0.2,-2.6 0.1,-2.7 1,-0.5 6.2,-22.9 5.6,-23.9 -0.4,-0.5 -0.2,-0.9 0.3,-0.9 1.1,0 3.3,-8 2.6,-9.2 -0.3,-0.4 -0.1,-0.8 0.3,-0.8 0.6,0 3.8,-9.1 4.9,-14 0,-0.3 0.5,-1.6 1.1,-3 0.6,-1.4 2,-5.2 3.2,-8.5 3.5,-9.4 14.4,-30.7 20.5,-39.9 10.1,-15.4 23.8,-30.8 32.3,-36.3 2.3,-1.5 2.6,-1.5 4.6,0.5 1.1,1.2 1.9,2.3 1.6,2.5 -9.7,6.9 -25.2,24.3 -34.9,39.2 -5.2,7.9 -16.6,30.5 -19.1,37.8 -0.9,2.6 -1.9,3.7 -3.4,3.7 -1.6,0 -1.7,0.2 -0.5,1 1.3,0.8 1.2,1 -0.2,1 -1,0 -1.8,0.5 -1.8,1 0,0.6 0.5,1 1,1 0.6,0 1,0.9 1,1.9 0,1.4 -0.5,1.8 -2,1.4 -2.5,-0.7 -2.6,0.5 -0.2,2.3 1.5,1.2 1.5,1.2 -0.5,0.7 -2.4,-0.6 -3.2,1.2 -1,2 0.7,0.3 0.5,0.6 -0.5,0.6 -2.1,0.1 -2.4,1.7 -0.5,2.4 0.7,0.3 0.5,0.6 -0.5,0.6 -1,0.1 -1.8,0.4 -1.8,0.7 0,0.4 0.8,1.3 1.8,2 1.5,1.2 1.5,1.2 -0.5,0.7 -1.7,-0.4 -2.3,-0.1 -2.3,1 0,0.8 0.6,1.8 1.3,2 0.7,0.3 0.5,0.6 -0.5,0.6 -2.1,0.1 -2.4,1.7 -0.5,2.4 0.7,0.3 0.5,0.6 -0.5,0.6 -2.1,0.1 -2.4,1.7 -0.5,2.4 0.7,0.4 0.6,0.6 -0.4,0.6 -1.3,0.1 -2.3,2.4 -3.9,9.1 -2.2,8.9 -2.2,9.1 -0.4,10.5 1.8,1.3 1.8,1.4 -0.3,0.8 -1.8,-0.4 -2.3,-0.1 -2.3,1.5 0,1.1 0.6,2.3 1.3,2.5 0.7,0.3 0.5,0.6 -0.5,0.6 -1.9,0.1 -2.6,4.1 -0.8,4.1 0.6,0 1,0.5 1,1 0,0.6 -0.7,1 -1.5,1 -2,0 -1.9,2 0.3,3.6 1.6,1.2 1.5,1.3 -0.5,1.4 -1.6,0 -2.3,0.6 -2.3,2 0,1.1 0.5,2 1,2 0.6,0 1,0.7 1,1.5 0,0.8 -0.7,1.5 -1.5,1.5 -1.9,0 -2,2.6 0,3.4 1.8,0.6 0.9,3.6 -1.1,3.6 -1.8,0 -1.8,2.6 0,3.3 1.8,0.7 0.9,4.7 -1,4.7 -0.8,0 -1.4,0.7 -1.4,1.5 0,0.8 0.5,1.5 1,1.5 0.6,0 1,1.4 1,3 0,2 -0.5,3 -1.5,3 -0.8,0 -1.5,0.7 -1.5,1.5 0,0.8 0.5,1.5 1,1.5 0.6,0 1,2 1,4.5 0,3.3 -0.4,4.5 -1.5,4.5 -1.9,0 -2,2.6 -0.2,3.3 0.8,0.3 1.3,1.6 1.1,2.9 -0.1,1.2 -0.3,5.1 -0.3,8.6 -0.1,4.8 -0.4,6.2 -1.6,6.2 -2,0 -2,4.6 -0.1,6.6 1.2,1.1 1.4,4.7 1.3,17.7 l -0.2,16.2 -3.1,0.3 c -2.7,0.3 -3.3,-0.1 -4.4,-3 z"
       id="path100" />
    <path
       d="m 609.2,498.8 c -1.5,-1.5 -1.6,-5.8 -0.2,-5.8 1.4,0 6,4.6 6,6 0,1.4 -4.3,1.3 -5.8,-0.2 z"
       id="path102" />
    <path
       d="m 461,491.5 c 0,-0.8 0.6,-1.5 1.3,-1.6 0.6,0 2.2,-0.2 3.5,-0.5 1.7,-0.3 2.2,0.1 2.2,1.6 0,1.6 -0.7,2 -3.5,2 -2.4,0 -3.5,-0.5 -3.5,-1.5 z"
       id="path104" />
    <path
       d="m 802,362.5 c 0,-4.6 6.8,-12.8 12.3,-14.8 1.3,-0.5 1.7,-0.1 1.7,1.8 0,2.2 -0.4,2.5 -3.5,2.5 -3.2,0 -3.5,0.2 -3.5,3 0,2 -0.5,3 -1.5,3 -1,0 -1.5,1 -1.5,3 0,2.3 -0.4,3 -2,3 -1.1,0 -2,-0.7 -2,-1.5 z"
       id="path106" />
    <path
       d="m 956,361 c 0,-2 -0.5,-3 -1.5,-3 -1,0 -1.5,-1 -1.5,-3 0,-2.8 -0.3,-3 -3.5,-3 -3.1,0 -3.5,-0.3 -3.5,-2.5 0,-1.9 0.4,-2.3 1.8,-1.8 3.5,1.3 8.4,5.8 10.3,9.4 2.4,4.9 2.4,6.9 -0.1,6.9 -1.6,0 -2,-0.7 -2,-3 z"
       id="path108" />
    <path
       d="m 841,147.6 c 0,-0.8 1.2,-1.7 2.8,-2 7,-1.6 8.9,-1.9 11.9,-2 1.8,-0.1 3.3,-0.4 3.3,-0.8 0,-0.5 3.2,-0.8 7,-0.8 3.9,0 7,0.4 7,0.8 0,0.4 1.2,0.7 2.8,0.6 3.9,-0.1 6.2,0.6 6.2,2.2 0,1.1 -2.2,1.2 -11.2,0.8 -8.5,-0.5 -13,-0.2 -18.1,1 -8.5,2 -11.7,2 -11.7,0.2 z"
       id="path110" />
  </g>
  <g
     fill="#ffffff"
     id="g136"
     transform="matrix(0.14672828,0,0,0.14662572,-14.799554,-14.779873)">
    <path
       d="m 463.5,837.1 c -7.7,-1.9 -12.1,-5.9 -15,-13.4 -1.4,-3.8 -1.5,-19.9 -1.3,-162.2 l 0.3,-158 3.3,-4.8 c 1.9,-2.6 5.1,-5.7 7.5,-7 l 4.2,-2.2 h 70.5 70.5 l 4.5,3 c 2.4,1.7 5.8,5.1 7.5,7.5 l 3,4.5 V 663 c 0,152.8 -0.1,158.6 -1.9,162 -2.6,4.9 -5.5,7.9 -10.1,10.3 -4,2.2 -4.4,2.2 -72,2.4 -37.4,0 -69.3,-0.2 -71,-0.6 z"
       id="path114" />
    <path
       d="m 646.4,837.1 c -4.8,-1.2 -9.2,-4.2 -12.2,-8.5 l -2.7,-3.9 -0.3,-136.4 C 631,555.7 631,551.9 632.9,548.2 c 2.2,-4.3 5.3,-7.3 9.8,-9.6 3,-1.5 9.7,-1.6 68.6,-1.4 l 65.3,0.3 4.1,2.7 c 2.6,1.7 5,4.5 6.7,7.9 l 2.6,5.3 v 132.4 c 0,97.5 -0.3,133.5 -1.2,137 -1.5,6.2 -7.8,12.5 -14,14 -5.3,1.3 -123,1.6 -128.4,0.3 z"
       id="path116" />
    <path
       d="m 813.5,836.1 c -4.8,-2.2 -7.9,-5.4 -10,-10.3 -1.3,-3.3 -1.5,-28.4 -1.5,-234.1 V 361.3 l 2.3,-4.4 c 1.6,-2.9 4,-5.4 7.2,-7.4 l 4.8,-3 h 64.7 64.7 l 4.8,3 c 3.2,2 5.6,4.5 7.2,7.4 l 2.3,4.4 v 230.4 c 0,205.7 -0.2,230.8 -1.5,234.1 -2.1,4.9 -5.2,8.1 -10,10.3 -3.8,1.7 -7.9,1.9 -67.5,1.9 -59.6,0 -63.7,-0.2 -67.5,-1.9 z"
       id="path118" />
    <path
       d="m 280,836.1 c -6.9,-2.2 -11.2,-5.7 -14.6,-12.1 -1.8,-3.3 -1.9,-7.5 -1.9,-93 v -89.5 l 3,-4.5 c 1.7,-2.4 5.1,-5.8 7.5,-7.5 l 4.5,-3 h 70.5 70.5 l 4.5,3 c 2.4,1.7 5.8,5.1 7.5,7.5 l 3,4.5 V 731 c 0,85.5 -0.1,89.7 -1.9,93 -2.6,4.9 -5.5,7.9 -10.1,10.3 -4,2.2 -4.5,2.2 -72,2.4 -37.4,0.1 -69.1,-0.2 -70.5,-0.6 z"
       id="path120" />
    <path
       d="m 852.5,286.5 c -3.8,-0.7 -9.5,-2.2 -12.6,-3.4 -5.1,-2 -16.7,-8.4 -17.9,-9.9 -0.3,-0.4 -2.2,-2 -4.3,-3.5 -8.4,-6.3 -18.8,-23.4 -22.4,-36.7 -2.4,-9.1 -2.4,-26.2 0.1,-35.9 2.1,-8.1 3.2,-9.1 12.5,-10.6 l 4.4,-0.7 -0.6,4.8 c -3.3,25 -0.2,41 11.1,58.4 5,7.6 17.4,21.1 24.2,26.5 4.9,3.8 15.1,10.5 16,10.5 0.6,0 1,0.5 1,1 0,1.3 -2.7,1.2 -11.5,-0.5 z"
       id="path122" />
    <path
       d="m 862,283.3 c -7.3,-4.4 -12.4,-8.1 -18.4,-13.3 -10.1,-8.6 -16.5,-16.5 -22.5,-27.3 -7.5,-13.7 -10.2,-28.4 -8.3,-44.8 0.7,-5.5 1.5,-10.5 1.8,-11 1.6,-2.6 16.6,0.7 24.9,5.4 4.4,2.5 4.8,3.5 6.6,15.7 3.5,24.5 16.4,46 37.1,61.7 2.9,2.2 7.2,5.2 9.5,6.6 2.3,1.5 4.4,3.1 4.7,3.6 1.1,1.8 -19.6,8 -26.9,8 -0.5,0 -4.4,-2 -8.5,-4.6 z"
       id="path124" />
    <path
       d="m 891.3,273 c -12.1,-8.1 -14.1,-9.9 -12.2,-11.1 0.7,-0.5 2.4,-0.9 3.6,-0.9 3.9,0 19.1,-6.1 25.5,-10.2 11.5,-7.3 20.8,-18 26.5,-30.5 4.4,-9.6 5.4,-1.8 1.6,13.1 -3.7,14.8 -13.7,30.1 -25.5,38.9 -4,3 -8.1,5.7 -9,6 -1.1,0.4 -4.8,-1.4 -10.5,-5.3 z"
       id="path126" />
    <path
       d="m 871,256.3 c -4,-4.4 -7.7,-9.2 -10.3,-13.4 l -1.8,-2.8 3.2,-1.6 c 10.3,-5.4 33.6,-24.3 42.3,-34.4 1.2,-1.4 4,-4.5 6.3,-7 2.3,-2.4 4,-4.8 3.7,-5.3 -0.3,-0.4 0,-0.8 0.5,-0.8 0.6,0 1.1,-0.5 1.1,-1.1 0,-0.7 1,-2 2.2,-3 1.1,-1.1 1.7,-1.9 1.3,-1.9 -0.5,0 0.2,-1.2 1.6,-2.6 1.3,-1.4 2.3,-2.9 2.2,-3.2 -0.4,-1.7 1.6,-3.4 3.3,-2.8 1.9,0.6 7.8,11.8 8.8,16.7 0.3,1.3 0.8,3.5 1.1,4.9 1.2,4.5 1.3,8.5 0.3,9.8 -0.6,0.6 -0.8,1.2 -0.5,1.2 1,0 -4.3,13.3 -7.3,18.2 -4.1,6.7 -4.7,7.3 -10.9,13.5 -9.3,9.2 -26.1,17.4 -39,19 -4.4,0.5 -4.8,0.3 -8.1,-3.4 z"
       id="path128" />
    <path
       d="m 857.3,236.8 c -4.9,-6.2 -13.4,-42.8 -10,-42.8 2,0 19.2,-9.2 25.4,-13.6 3.4,-2.4 6.6,-4.4 7.2,-4.4 0.6,0 1.1,-0.4 1.1,-1 0,-0.5 0.6,-1 1.3,-1 0.7,0 1.7,-1 2.2,-2.2 0.6,-1.3 1.6,-2.2 2.3,-2 0.7,0.1 1.1,-0.4 1,-1 -0.2,-0.7 0.3,-1.2 1,-1 0.6,0.1 1.1,-0.2 1,-0.7 -0.2,-0.5 1.6,-2.7 4,-4.9 2.3,-2.2 4.2,-4.5 4.2,-5.1 0,-0.6 0.4,-1.1 0.9,-1.1 0.5,0 1.3,-0.9 1.6,-2 0.6,-2 3.5,-2.9 3.5,-1.1 0,0.5 0.9,1.3 2,1.6 1.1,0.4 3.2,1.7 4.5,3.1 1.3,1.3 2.8,2.4 3.3,2.4 1.4,0 7.3,6.6 6.6,7.3 -0.4,0.4 -0.2,0.7 0.4,0.7 0.7,0 1.2,0.7 1.2,1.5 0,0.8 0.5,1.5 1,1.5 0.6,0 1,0.7 1,1.5 0,0.8 -0.4,1.5 -1,1.5 -0.5,0 -1,0.7 -1,1.5 0,0.8 -0.4,1.5 -0.8,1.5 -0.5,0 -1.7,1.9 -2.7,4.3 -1,2.3 -2.6,4.9 -3.5,5.7 -0.9,0.8 -3.2,4 -5.2,7 -4.1,6.5 -16.7,19.6 -25.8,26.9 -3.6,2.8 -7.1,5.6 -7.7,6.1 -2.3,1.9 -16.8,11 -17.4,11 -0.4,0 -1.1,-0.6 -1.6,-1.2 z"
       id="path130" />
    <path
       d="m 838.1,189.5 c -3.5,-1.8 -9,-3.8 -12.2,-4.5 -6.7,-1.4 -20.4,-0.9 -23.9,1 -1.2,0.6 -2.4,0.9 -2.7,0.7 -0.7,-0.8 5.3,-11.5 9.9,-17.4 3.5,-4.6 4.9,-5.5 10.3,-7.2 8.9,-2.8 21.8,-4.5 27.8,-3.7 6.5,0.9 12.8,2.1 13.5,2.6 0.1,0.2 0.6,0.3 1.1,0.4 0.5,0 1.3,0.4 1.7,0.8 0.4,0.5 1.6,0.8 2.6,0.8 1,0 1.8,0.5 1.8,1.1 0,0.5 0.5,0.7 1,0.4 0.6,-0.3 1,-0.2 1,0.4 0,0.5 0.8,1.2 1.8,1.5 1,0.4 3.3,1.9 5,3.4 l 3.2,2.9 -3.6,2.9 c -5.9,4.7 -24.6,15.2 -29.9,16.7 -1.2,0.4 -4.5,-0.7 -8.4,-2.8 z"
       id="path132" />
    <path
       d="m 881,169.5 c 0,-0.8 -0.9,-1.5 -2,-1.5 -1.1,0 -2,-0.4 -2,-0.9 0,-0.5 -0.9,-1.3 -2,-1.6 -1.1,-0.4 -3.3,-1.8 -4.7,-3.1 -1.5,-1.4 -3.3,-2.2 -4,-2 -0.7,0.3 -1.3,0 -1.3,-0.6 0,-0.6 -0.3,-0.8 -0.7,-0.5 -0.3,0.4 -1.2,0.2 -1.8,-0.3 -1.3,-1 -6.3,-2.1 -10.2,-2.2 -1.3,0 -2.3,-0.3 -2.3,-0.7 0,-1 -17.1,0.6 -24.1,2.3 -3.3,0.7 -5.9,1 -5.9,0.6 0,-1.6 14.4,-10.4 19,-11.5 0.3,-0.1 1.2,-0.5 2,-0.8 8,-3.5 30.2,-4.6 41,-2.1 3.6,0.9 7,1.7 7.5,1.8 0.6,0.1 1.6,0.5 2.3,0.9 0.6,0.5 1.2,0.5 1.2,0.1 0,-0.4 0.9,0.1 2.1,1.2 1.2,1 2.3,1.8 2.5,1.7 0.9,-0.6 2.4,-0.2 2.4,0.6 0,0.4 -1.3,2.2 -3,3.9 -1.6,1.8 -3,3.6 -3,4.2 0,0.5 -1,1.5 -2.2,2.1 -2.4,1.3 -8.7,7.9 -8.8,9.2 0,1.4 -2,0.7 -2,-0.8 z"
       id="path134" />
  </g>
</svg>
